<svg width="284" height="161" viewBox="0 0 284 161" fill="none" xmlns="http://www.w3.org/2000/svg">
<path d="M179.661 112.515L177.828 93.592L171.499 112.515H162.403L156.074 93.592L154.242 112.515H143.352L146.983 76.3711H157.874L166.97 97.8883L176.029 76.3711H186.919L190.551 112.515H179.661Z" fill="#445E33"/>
<path d="M205.973 90.1468H217.766V98.7394H205.973V103.071H220.501V112.515H195.083V76.3711H220.501V85.8505H205.973V90.1468Z" fill="#445E33"/>
<path d="M225.928 76.3711H236.818V112.515H225.928V76.3711Z" fill="#445E33"/>
<path d="M262.235 75.5146C266.018 75.5146 269.504 76.3632 272.696 78.0578C275.89 79.7536 278.421 82.0559 280.288 84.9635C282.153 87.8722 283.087 91.032 283.087 94.4428C283.087 97.8549 282.153 101.015 280.288 103.922C278.421 106.831 275.89 109.138 272.696 110.843C269.504 112.548 266.018 113.402 262.235 113.402C258.455 113.402 254.969 112.548 251.774 110.843C248.583 109.138 246.047 106.831 244.167 103.922C242.289 101.015 241.351 97.8549 241.351 94.4428C241.351 91.032 242.289 87.8773 244.167 84.9787C246.047 82.0814 248.583 79.7791 251.774 78.0731C254.969 76.3683 258.455 75.5146 262.235 75.5146ZM262.235 103.922C264.032 103.922 265.698 103.497 267.232 102.643C268.764 101.791 269.98 100.638 270.88 99.1825C271.779 97.7288 272.228 96.1489 272.228 94.4428C272.228 92.7381 271.779 91.1633 270.88 89.7184C269.98 88.2749 268.764 87.1269 267.232 86.2732C265.698 85.4209 264.032 84.994 262.235 84.994C260.437 84.994 258.771 85.4209 257.238 86.2732C255.705 87.1269 254.489 88.2749 253.59 89.7184C252.69 91.1633 252.242 92.7381 252.242 94.4428C252.242 96.1489 252.69 97.7288 253.59 99.1825C254.489 100.638 255.705 101.791 257.238 102.643C258.771 103.497 260.437 103.922 262.235 103.922Z" fill="#445E33"/>
<path d="M31.5863 160.207L29.1685 154.204H14.3988L11.9811 160.207H0.913208L16.6822 124.063H26.8851L42.6541 160.207H31.5863ZM21.7649 136.132L17.5795 146.432H25.9825L21.7649 136.132Z" fill="#445E33"/>
<path d="M79.8611 160.207L78.029 141.284L71.6999 160.207H62.6038L56.2747 141.284L54.4426 160.207H43.5521L47.184 124.063H58.0746L67.1707 145.581L76.2292 124.063H87.1197L90.7517 160.207H79.8611Z" fill="#445E33"/>
<path d="M121.529 140.79C123.764 141.249 125.388 142.277 126.402 143.873C127.419 145.471 127.928 147.297 127.928 149.352C127.928 151.429 127.403 153.292 126.354 154.943C125.303 156.594 123.792 157.886 121.819 158.816C119.849 159.744 117.538 160.207 114.888 160.207H95.2831V124.063H111.606C114.557 124.063 117.121 124.424 119.299 125.144C121.477 125.865 123.158 126.937 124.344 128.36C125.533 129.78 126.128 131.508 126.128 133.543C126.128 135.314 125.701 136.844 124.849 138.135C123.996 139.423 122.89 140.308 121.529 140.79ZM110.708 137.839C113.728 137.839 115.238 136.834 115.238 134.822C115.238 133.817 114.851 133.063 114.077 132.559C113.303 132.057 112.18 131.805 110.708 131.805H106.174V137.839H110.708ZM111.606 152.466C113.31 152.466 114.647 152.178 115.614 151.6C116.583 151.019 117.07 150.16 117.07 149.021C117.07 147.887 116.583 147.031 115.614 146.452C114.647 145.871 113.31 145.581 111.606 145.581H106.174V152.466H111.606Z" fill="#445E33"/>
<path d="M132.491 124.063H143.382V160.207H132.491V124.063Z" fill="#445E33"/>
<path d="M160.637 137.839H172.43V146.432H160.637V150.764H175.165V160.207H149.747V124.063H175.165V133.543H160.637V137.839Z" fill="#445E33"/>
<path d="M216.863 160.207H206.01L191.483 140.428V160.207H180.592V124.063H191.483L206.01 143.873V124.063H216.863V160.207Z" fill="#445E33"/>
<path d="M252.274 133.543H242.281V160.207H231.39V133.543H221.397V124.063H252.274V133.543Z" fill="#445E33"/>
<path d="M267.697 137.839H279.49V146.432H267.697V150.764H282.225V160.207H256.806V124.063H282.225V133.543H267.697V137.839Z" fill="#445E33"/>
<mask id="mask0_96_1395" style="mask-type:luminance" maskUnits="userSpaceOnUse" x="5" y="0" width="116" height="69">
<path d="M5.64697 0.09375H120.643V68.2638H5.64697V0.09375Z" fill="white"/>
</mask>
<g mask="url(#mask0_96_1395)">
<path d="M72.006 65.052C72.006 65.052 50.1161 65.7183 29.6284 48.9893C9.13944 32.2615 5.98563 0.580717 5.75191 0.802412C5.5182 1.02538 36.7554 -4.93363 59.6205 14.8291C82.4842 34.5931 72.006 65.052 72.006 65.052ZM114.502 43.9935C121.046 31.5951 120.501 15.7554 120.501 15.7554C120.501 15.7554 99.4272 15.6063 87.7428 29.3374C72.6293 47.0284 78.8617 68.05 78.8617 68.05C78.8617 68.05 105.036 61.9062 114.502 43.9935Z" fill="#445E33"/>
</g>
<mask id="mask1_96_1395" style="mask-type:luminance" maskUnits="userSpaceOnUse" x="34" y="20" width="67" height="84">
<path d="M34.7418 20.3164H100.418V103.726H34.7418V20.3164Z" fill="white"/>
</mask>
<g mask="url(#mask1_96_1395)">
<path d="M99.8555 33.8526C99.1154 33.1124 97.869 33.1124 97.0899 33.8157C84.7433 45.3629 78.6667 59.0928 75.7064 73.0825C72.4343 57.2427 63.2819 33.1863 37.6122 20.5293C36.6384 20.0476 35.4711 20.4184 35.0037 21.3065C34.4973 22.1945 34.8869 23.3412 35.8217 23.7859C71.6553 41.4769 73.525 82.9645 73.6029 87.9603C73.2134 92.6605 73.0965 97.2868 73.0576 101.802C73.0576 102.838 73.9145 103.652 75.0052 103.652C76.0569 103.652 76.9528 102.838 76.9528 101.802C76.9918 97.5824 77.1086 93.2899 77.4203 88.9222C77.4592 88.7744 77.4982 88.6266 77.4982 88.4788V88.0711C78.9784 69.9737 84.0032 51.1729 99.8166 36.4059C100.596 35.7396 100.596 34.5929 99.8555 33.8526Z" fill="#BFE063"/>
</g>
<path d="M17.9332 78.7676H124.971C126.976 78.7676 128.899 79.5244 130.318 80.8699C131.736 82.2166 132.534 84.0424 132.534 85.9459V100.301C132.534 102.205 131.736 104.031 130.318 105.376C128.899 106.722 126.976 107.478 124.971 107.478H17.9332C13.7559 107.478 10.3698 104.265 10.3698 100.301V85.9459C10.3698 81.9809 13.7559 78.7676 17.9332 78.7676Z" fill="#BFE063"/>
<path d="M24.0544 87.5513C25.7697 87.5513 27.317 87.9832 28.6965 88.8458L27.767 90.7111C26.4157 89.9339 25.1209 89.544 23.8825 89.544C23.2122 89.544 22.6844 89.6586 22.2975 89.8854C21.9134 90.1135 21.7226 90.4384 21.7226 90.8589C21.7226 91.2768 21.8999 91.6335 22.2545 91.9291C22.6091 92.2222 23.051 92.4375 23.5816 92.5764C24.1108 92.7127 24.6844 92.886 25.3009 93.0962C25.9201 93.3039 26.495 93.5243 27.0255 93.7587C27.5588 93.9932 27.998 94.3588 28.3419 94.8545C28.6884 95.3514 28.863 95.9528 28.863 96.6586C28.863 97.7594 28.3983 98.6399 27.4715 99.2986C26.5433 99.9586 25.3412 100.287 23.8664 100.287C22.8563 100.287 21.8758 100.109 20.9275 99.7522C19.9819 99.3929 19.1558 98.9061 18.4506 98.2946L19.4123 96.4598C20.0813 97.0485 20.8173 97.5021 21.6205 97.8206C22.4224 98.1366 23.184 98.2946 23.904 98.2946C24.6844 98.2946 25.2928 98.1608 25.7307 97.8919C26.1672 97.6206 26.3862 97.2447 26.3862 96.7656C26.3862 96.335 26.2089 95.9731 25.8543 95.6801C25.4997 95.3883 25.0564 95.1743 24.5272 95.0379C23.9966 94.8991 23.4218 94.7309 22.8026 94.5334C22.186 94.3334 21.6125 94.1231 21.0833 93.9014C20.5527 93.681 20.1108 93.3255 19.7562 92.8363C19.4016 92.3445 19.2243 91.7495 19.2243 91.0525C19.2243 89.9899 19.6662 89.1401 20.5514 88.5043C21.4352 87.8698 22.6038 87.5513 24.0544 87.5513Z" fill="#FFFFF4"/>
<path d="M35.496 90.5889C37.226 90.5889 38.4779 91.0832 39.2516 92.0719C40.0279 93.0581 40.3476 94.4418 40.2079 96.2255H32.5947C32.7734 96.9696 33.1401 97.5544 33.6961 97.9787C34.2509 98.4043 34.9265 98.6158 35.7217 98.6158C36.8567 98.6158 37.8036 98.2463 38.5639 97.5047L39.719 98.6718C38.6834 99.7497 37.2932 100.287 35.5497 100.287C33.9984 100.287 32.7519 99.8427 31.8103 98.9521C30.8674 98.059 30.3973 96.8932 30.3973 95.456C30.3973 94.0188 30.8701 92.8517 31.8157 91.9547C32.764 91.0552 33.9917 90.5991 35.496 90.5889ZM32.5571 94.717H38.3167C38.2764 93.9525 38.0051 93.3499 37.5001 92.9077C36.995 92.4631 36.3315 92.2401 35.5121 92.2401C34.717 92.2401 34.0561 92.4631 33.5296 92.9077C33.0057 93.3499 32.682 93.9525 32.5571 94.717Z" fill="#FFFFF4"/>
<path d="M55.6261 90.5889C56.7758 90.5889 57.6785 90.9189 58.3339 91.5776C58.9894 92.2337 59.3172 93.1307 59.3172 94.2685V100.216H57.1412V94.8444C57.1412 94.1143 56.929 93.5435 56.5072 93.132C56.0841 92.7179 55.4998 92.5102 54.7557 92.5102C53.9095 92.5344 53.2365 92.8249 52.7355 93.3817C52.2372 93.9398 51.9887 94.6431 51.9887 95.4916V100.216H49.8128V94.8444C49.8128 94.1143 49.6005 93.5435 49.1788 93.132C48.7557 92.7179 48.1767 92.5102 47.4434 92.5102C46.5837 92.5344 45.9014 92.8249 45.3963 93.3817C44.8913 93.9398 44.6388 94.6431 44.6388 95.4916V100.216H42.4843V90.6602H44.6388V92.5102C45.3077 91.2297 46.5273 90.5889 48.2976 90.5889C49.1922 90.5889 49.939 90.7902 50.5381 91.1902C51.1398 91.5916 51.5602 92.1573 51.8007 92.8874C52.4199 91.3559 53.6946 90.5889 55.6261 90.5889Z" fill="#FFFFF4"/>
<path d="M68.2767 100.216V99.049C67.5567 99.8886 66.4459 100.308 64.9456 100.308C63.871 100.308 63.0114 100.03 62.3666 99.472C61.7246 98.9152 61.4049 98.2055 61.4049 97.3417C61.4049 96.4689 61.738 95.7758 62.4042 95.2623C63.0731 94.7463 64.008 94.4813 65.2088 94.4673H68.2605V94.1819C68.2605 93.5703 68.0537 93.0963 67.6427 92.76C67.2303 92.4236 66.6339 92.2554 65.8535 92.2554C64.8784 92.2554 63.8871 92.5803 62.877 93.2288L61.9905 91.7916C62.7602 91.361 63.4519 91.0526 64.0644 90.8692C64.6769 90.6832 65.4304 90.5889 66.3263 90.5889C67.6158 90.5889 68.6125 90.887 69.319 91.4807C70.0241 92.0719 70.3841 92.895 70.3989 93.9474L70.415 100.216H68.2767ZM65.3969 98.6718C66.1665 98.6718 66.8206 98.5024 67.3579 98.1622C67.8952 97.8194 68.1961 97.385 68.2605 96.8575V95.9758H65.5312C64.8112 95.9758 64.282 96.0752 63.9462 96.2714C63.6131 96.4689 63.4466 96.7951 63.4466 97.2499C63.4466 97.6818 63.6198 98.0271 63.9677 98.2845C64.3143 98.5431 64.7911 98.6718 65.3969 98.6718Z" fill="#FFFFF4"/>
<path d="M79.2245 90.5889C80.3985 90.5889 81.3172 90.915 81.9808 91.5674C82.643 92.2197 82.9747 93.1205 82.9747 94.2685V100.216H80.7934V94.8444C80.7934 94.1283 80.5785 93.5626 80.1486 93.1473C79.7215 92.7332 79.1292 92.5255 78.3703 92.5255C77.5644 92.5395 76.9048 92.7854 76.3931 93.2645C75.88 93.7436 75.5872 94.3653 75.512 95.1298V100.216H73.336V90.6602H75.512V92.4898C76.1916 91.2234 77.43 90.5889 79.2245 90.5889Z" fill="#FFFFF4"/>
<path d="M91.9316 100.216V99.049C91.2116 99.8886 90.1008 100.308 88.6005 100.308C87.5259 100.308 86.6663 100.03 86.0215 99.472C85.3795 98.9152 85.0598 98.2055 85.0598 97.3417C85.0598 96.4689 85.3929 95.7758 86.0591 95.2623C86.7281 94.7463 87.6629 94.4813 88.8637 94.4673H91.9154V94.1819C91.9154 93.5703 91.7086 93.0963 91.2976 92.76C90.8852 92.4236 90.2888 92.2554 89.5085 92.2554C88.5333 92.2554 87.542 92.5803 86.5319 93.2288L85.6454 91.7916C86.4151 91.361 87.1068 91.0526 87.7193 90.8692C88.3318 90.6832 89.0854 90.5889 89.9813 90.5889C91.2707 90.5889 92.2674 90.887 92.9739 91.4807C93.6791 92.0719 94.039 92.895 94.0538 93.9474L94.0699 100.216H91.9316ZM89.0518 98.6718C89.8214 98.6718 90.4756 98.5024 91.0128 98.1622C91.5501 97.8194 91.851 97.385 91.9154 96.8575V95.9758H89.1861C88.4661 95.9758 87.9369 96.0752 87.6011 96.2714C87.268 96.4689 87.1015 96.7951 87.1015 97.2499C87.1015 97.6818 87.2747 98.0271 87.6226 98.2845C87.9692 98.5431 88.446 98.6718 89.0518 98.6718Z" fill="#FFFFF4"/>
<path d="M111.478 86.8838V100.216H109.297V98.5801C108.551 99.7319 107.371 100.308 105.756 100.308C104.316 100.308 103.15 99.8568 102.259 98.9522C101.369 98.045 100.926 96.8613 100.926 95.3999C100.926 93.9627 101.368 92.7995 102.253 91.9089C103.137 91.0157 104.292 90.5685 105.719 90.5685C107.333 90.5685 108.526 91.1495 109.297 92.3115V86.8838H111.478ZM103.983 97.7086C104.559 98.2896 105.302 98.5801 106.213 98.5801C107.122 98.5801 107.864 98.2896 108.437 97.7086C109.009 97.1276 109.297 96.3823 109.297 95.4713C109.297 94.5514 109.009 93.7984 108.437 93.2136C107.864 92.6262 107.122 92.3319 106.213 92.3319C105.302 92.3319 104.559 92.6262 103.983 93.2136C103.41 93.7984 103.118 94.5514 103.107 95.4713C103.118 96.3823 103.41 97.1276 103.983 97.7086Z" fill="#FFFFF4"/>
<path d="M119.108 90.5889C120.662 90.5889 121.924 91.0361 122.896 91.9292C123.869 92.8198 124.357 93.9882 124.357 95.4356C124.357 96.8728 123.869 98.0424 122.896 98.9419C121.924 99.8389 120.662 100.287 119.108 100.287C117.542 100.287 116.272 99.8389 115.299 98.9419C114.327 98.0424 113.843 96.8728 113.843 95.4356C113.843 93.9882 114.327 92.8198 115.299 91.9292C116.272 91.0361 117.542 90.5889 119.108 90.5889ZM119.108 92.3675C118.201 92.3675 117.46 92.6555 116.884 93.2288C116.31 93.8034 116.024 94.5463 116.024 95.456C116.024 96.3772 116.31 97.1263 116.884 97.7035C117.46 98.2781 118.201 98.5648 119.108 98.5648C120.017 98.5648 120.755 98.2781 121.321 97.7035C121.891 97.1263 122.176 96.3772 122.176 95.456C122.176 94.5463 121.888 93.8034 121.316 93.2288C120.742 92.6555 120.006 92.3675 119.108 92.3675Z" fill="#FFFFF4"/>
</svg>
