<svg xmlns="http://www.w3.org/2000/svg" xmlns:xlink="http://www.w3.org/1999/xlink" width="500" zoomAndPan="magnify" viewBox="0 0 375 374.999991" height="500" preserveAspectRatio="xMidYMid meet" version="1.0"><defs><g/><clipPath id="8977ffe2c0"><path d="M 254.410156 43.023438 L 317.832031 43.023438 L 317.832031 164.859375 L 254.410156 164.859375 Z M 254.410156 43.023438 " clip-rule="nonzero"/></clipPath><clipPath id="509232b39f"><path d="M 210 167.207031 L 315.394531 167.207031 L 315.394531 268.359375 L 210 268.359375 Z M 210 167.207031 " clip-rule="nonzero"/></clipPath><clipPath id="3b6b25c73f"><path d="M 77 24.609375 L 252 24.609375 L 252 121 L 77 121 Z M 77 24.609375 " clip-rule="nonzero"/></clipPath></defs><g fill="#8cc63f" fill-opacity="1"><g transform="translate(21.064566, 336.198738)"><g><path d="M 33.46875 -7.140625 L 33.46875 0 L 4.359375 0 L 4.359375 -41.90625 L 32.9375 -41.90625 L 32.9375 -34.765625 L 12.515625 -34.765625 L 12.515625 -24.671875 L 30.15625 -24.671875 L 30.15625 -18.0625 L 12.515625 -18.0625 L 12.515625 -7.140625 Z M 33.46875 -7.140625 "/></g></g></g><g fill="#8cc63f" fill-opacity="1"><g transform="translate(56.523737, 336.198738)"><g><path d="M 1.828125 -21.25 C 1.828125 -23.800781 2.289062 -26.328125 3.21875 -28.828125 C 4.144531 -31.328125 5.492188 -33.5625 7.265625 -35.53125 C 9.035156 -37.5 11.195312 -39.09375 13.75 -40.3125 C 16.3125 -41.53125 19.222656 -42.140625 22.484375 -42.140625 C 26.335938 -42.140625 29.671875 -41.289062 32.484375 -39.59375 C 35.296875 -37.90625 37.390625 -35.703125 38.765625 -32.984375 L 32.515625 -28.6875 C 31.960938 -29.863281 31.289062 -30.851562 30.5 -31.65625 C 29.71875 -32.46875 28.875 -33.109375 27.96875 -33.578125 C 27.0625 -34.046875 26.117188 -34.390625 25.140625 -34.609375 C 24.160156 -34.828125 23.195312 -34.9375 22.25 -34.9375 C 20.207031 -34.9375 18.425781 -34.519531 16.90625 -33.6875 C 15.394531 -32.863281 14.132812 -31.789062 13.125 -30.46875 C 12.125 -29.15625 11.367188 -27.660156 10.859375 -25.984375 C 10.347656 -24.316406 10.09375 -22.660156 10.09375 -21.015625 C 10.09375 -19.160156 10.382812 -17.375 10.96875 -15.65625 C 11.5625 -13.945312 12.398438 -12.441406 13.484375 -11.140625 C 14.566406 -9.847656 15.863281 -8.804688 17.375 -8.015625 C 18.894531 -7.234375 20.554688 -6.84375 22.359375 -6.84375 C 23.304688 -6.84375 24.289062 -6.957031 25.3125 -7.1875 C 26.34375 -7.425781 27.316406 -7.800781 28.234375 -8.3125 C 29.160156 -8.832031 30.015625 -9.492188 30.796875 -10.296875 C 31.585938 -11.109375 32.21875 -12.082031 32.6875 -13.21875 L 39.359375 -9.390625 C 38.691406 -7.804688 37.738281 -6.414062 36.5 -5.21875 C 35.257812 -4.019531 33.863281 -3.003906 32.3125 -2.171875 C 30.757812 -1.347656 29.097656 -0.71875 27.328125 -0.28125 C 25.554688 0.144531 23.820312 0.359375 22.125 0.359375 C 19.132812 0.359375 16.398438 -0.269531 13.921875 -1.53125 C 11.441406 -2.789062 9.304688 -4.429688 7.515625 -6.453125 C 5.734375 -8.484375 4.335938 -10.785156 3.328125 -13.359375 C 2.328125 -15.941406 1.828125 -18.570312 1.828125 -21.25 Z M 1.828125 -21.25 "/></g></g></g><g fill="#8cc63f" fill-opacity="1"><g transform="translate(96.997921, 336.198738)"><g><path d="M 39.59375 -41.90625 L 39.59375 0 L 31.515625 0 L 31.515625 -17.875 L 12.515625 -17.875 L 12.515625 0 L 4.359375 0 L 4.359375 -41.90625 L 12.515625 -41.90625 L 12.515625 -24.96875 L 31.515625 -24.96875 L 31.515625 -41.90625 Z M 39.59375 -41.90625 "/></g></g></g><g fill="#8cc63f" fill-opacity="1"><g transform="translate(140.953121, 336.198738)"><g><path d="M 22.25 0.296875 C 19.175781 0.296875 16.390625 -0.300781 13.890625 -1.5 C 11.398438 -2.707031 9.257812 -4.300781 7.46875 -6.28125 C 5.675781 -8.269531 4.285156 -10.539062 3.296875 -13.09375 C 2.316406 -15.65625 1.828125 -18.273438 1.828125 -20.953125 C 1.828125 -23.742188 2.347656 -26.414062 3.390625 -28.96875 C 4.429688 -31.53125 5.867188 -33.796875 7.703125 -35.765625 C 9.535156 -37.734375 11.707031 -39.296875 14.21875 -40.453125 C 16.738281 -41.617188 19.472656 -42.203125 22.421875 -42.203125 C 25.453125 -42.203125 28.21875 -41.582031 30.71875 -40.34375 C 33.21875 -39.101562 35.351562 -37.476562 37.125 -35.46875 C 38.894531 -33.457031 40.269531 -31.171875 41.25 -28.609375 C 42.238281 -26.054688 42.734375 -23.460938 42.734375 -20.828125 C 42.734375 -18.035156 42.21875 -15.367188 41.1875 -12.828125 C 40.164062 -10.296875 38.75 -8.054688 36.9375 -6.109375 C 35.132812 -4.160156 32.972656 -2.601562 30.453125 -1.4375 C 27.929688 -0.28125 25.195312 0.296875 22.25 0.296875 Z M 10.09375 -20.953125 C 10.09375 -19.140625 10.367188 -17.382812 10.921875 -15.6875 C 11.472656 -14 12.269531 -12.503906 13.3125 -11.203125 C 14.351562 -9.910156 15.628906 -8.867188 17.140625 -8.078125 C 18.660156 -7.296875 20.382812 -6.90625 22.3125 -6.90625 C 24.28125 -6.90625 26.019531 -7.304688 27.53125 -8.109375 C 29.039062 -8.921875 30.316406 -9.992188 31.359375 -11.328125 C 32.410156 -12.671875 33.203125 -14.175781 33.734375 -15.84375 C 34.265625 -17.519531 34.53125 -19.222656 34.53125 -20.953125 C 34.53125 -22.765625 34.242188 -24.515625 33.671875 -26.203125 C 33.097656 -27.890625 32.289062 -29.382812 31.25 -30.6875 C 30.207031 -31.988281 28.925781 -33.019531 27.40625 -33.78125 C 25.894531 -34.550781 24.195312 -34.9375 22.3125 -34.9375 C 20.34375 -34.9375 18.585938 -34.53125 17.046875 -33.71875 C 15.515625 -32.914062 14.238281 -31.851562 13.21875 -30.53125 C 12.195312 -29.21875 11.421875 -27.722656 10.890625 -26.046875 C 10.359375 -24.378906 10.09375 -22.679688 10.09375 -20.953125 Z M 10.09375 -20.953125 "/></g></g></g><g fill="#929497" fill-opacity="1"><g transform="translate(190.034524, 336.198738)"><g><path d="M 5.25 0 L 5.25 -41.90625 L 9.390625 -41.90625 L 9.390625 -3.65625 L 33.578125 -3.65625 L 33.578125 0 Z M 5.25 0 "/></g></g></g><g fill="#929497" fill-opacity="1"><g transform="translate(224.431683, 336.198738)"><g><path d="M 22.125 0.296875 C 19.21875 0.296875 16.550781 -0.300781 14.125 -1.5 C 11.707031 -2.707031 9.632812 -4.300781 7.90625 -6.28125 C 6.175781 -8.269531 4.835938 -10.539062 3.890625 -13.09375 C 2.953125 -15.65625 2.484375 -18.273438 2.484375 -20.953125 C 2.484375 -23.742188 2.984375 -26.414062 3.984375 -28.96875 C 4.984375 -31.53125 6.367188 -33.796875 8.140625 -35.765625 C 9.910156 -37.734375 11.992188 -39.296875 14.390625 -40.453125 C 16.796875 -41.617188 19.394531 -42.203125 22.1875 -42.203125 C 25.101562 -42.203125 27.769531 -41.582031 30.1875 -40.34375 C 32.601562 -39.101562 34.664062 -37.476562 36.375 -35.46875 C 38.09375 -33.457031 39.421875 -31.179688 40.359375 -28.640625 C 41.304688 -26.109375 41.78125 -23.523438 41.78125 -20.890625 C 41.78125 -18.097656 41.273438 -15.421875 40.265625 -12.859375 C 39.265625 -10.304688 37.890625 -8.054688 36.140625 -6.109375 C 34.390625 -4.160156 32.316406 -2.601562 29.921875 -1.4375 C 27.523438 -0.28125 24.925781 0.296875 22.125 0.296875 Z M 6.609375 -20.953125 C 6.609375 -18.671875 6.984375 -16.476562 7.734375 -14.375 C 8.484375 -12.269531 9.546875 -10.398438 10.921875 -8.765625 C 12.296875 -7.128906 13.925781 -5.828125 15.8125 -4.859375 C 17.707031 -3.898438 19.8125 -3.421875 22.125 -3.421875 C 24.488281 -3.421875 26.632812 -3.929688 28.5625 -4.953125 C 30.488281 -5.972656 32.117188 -7.3125 33.453125 -8.96875 C 34.796875 -10.625 35.832031 -12.492188 36.5625 -14.578125 C 37.289062 -16.660156 37.65625 -18.785156 37.65625 -20.953125 C 37.65625 -23.234375 37.269531 -25.425781 36.5 -27.53125 C 35.726562 -29.632812 34.65625 -31.492188 33.28125 -33.109375 C 31.90625 -34.722656 30.269531 -36.007812 28.375 -36.96875 C 26.488281 -37.9375 24.40625 -38.421875 22.125 -38.421875 C 19.769531 -38.421875 17.628906 -37.914062 15.703125 -36.90625 C 13.773438 -35.90625 12.140625 -34.578125 10.796875 -32.921875 C 9.460938 -31.273438 8.429688 -29.410156 7.703125 -27.328125 C 6.972656 -25.242188 6.609375 -23.117188 6.609375 -20.953125 Z M 6.609375 -20.953125 "/></g></g></g><g fill="#929497" fill-opacity="1"><g transform="translate(268.740893, 336.198738)"><g><path d="M 35.53125 -6.140625 C 31.632812 -1.847656 27.148438 0.296875 22.078125 0.296875 C 19.242188 0.296875 16.632812 -0.3125 14.25 -1.53125 C 11.875 -2.75 9.804688 -4.363281 8.046875 -6.375 C 6.296875 -8.382812 4.929688 -10.65625 3.953125 -13.1875 C 2.972656 -15.726562 2.484375 -18.335938 2.484375 -21.015625 C 2.484375 -23.804688 2.960938 -26.476562 3.921875 -29.03125 C 4.890625 -31.59375 6.238281 -33.847656 7.96875 -35.796875 C 9.695312 -37.742188 11.738281 -39.296875 14.09375 -40.453125 C 16.457031 -41.617188 19.035156 -42.203125 21.828125 -42.203125 C 23.878906 -42.203125 25.75 -41.972656 27.4375 -41.515625 C 29.132812 -41.066406 30.640625 -40.4375 31.953125 -39.625 C 33.273438 -38.820312 34.414062 -37.859375 35.375 -36.734375 C 36.34375 -35.617188 37.160156 -34.390625 37.828125 -33.046875 L 34.640625 -30.921875 C 33.265625 -33.515625 31.472656 -35.421875 29.265625 -36.640625 C 27.066406 -37.867188 24.570312 -38.484375 21.78125 -38.484375 C 19.457031 -38.484375 17.359375 -37.988281 15.484375 -37 C 13.617188 -36.019531 12.023438 -34.710938 10.703125 -33.078125 C 9.390625 -31.441406 8.378906 -29.570312 7.671875 -27.46875 C 6.960938 -25.363281 6.609375 -23.191406 6.609375 -20.953125 C 6.609375 -18.585938 7.007812 -16.34375 7.8125 -14.21875 C 8.625 -12.09375 9.738281 -10.234375 11.15625 -8.640625 C 12.570312 -7.046875 14.234375 -5.773438 16.140625 -4.828125 C 18.046875 -3.890625 20.117188 -3.421875 22.359375 -3.421875 C 24.765625 -3.421875 27.054688 -3.976562 29.234375 -5.09375 C 31.421875 -6.21875 33.519531 -8.003906 35.53125 -10.453125 L 35.53125 -17.40625 L 26.203125 -17.40625 L 26.203125 -20.59375 L 39.015625 -20.59375 L 39.015625 0 L 35.53125 0 Z M 35.53125 -6.140625 "/></g></g></g><g fill="#929497" fill-opacity="1"><g transform="translate(310.98509, 336.198738)"><g><path d="M 5.25 0 L 5.25 -41.90625 L 9.390625 -41.90625 L 9.390625 0 Z M 5.25 0 "/></g></g></g><g fill="#929497" fill-opacity="1"><g transform="translate(325.617153, 336.198738)"><g><path d="M 2.484375 -21.25 C 2.484375 -23.757812 2.925781 -26.265625 3.8125 -28.765625 C 4.695312 -31.265625 5.984375 -33.5 7.671875 -35.46875 C 9.359375 -37.4375 11.441406 -39.039062 13.921875 -40.28125 C 16.398438 -41.519531 19.210938 -42.140625 22.359375 -42.140625 C 26.097656 -42.140625 29.296875 -41.289062 31.953125 -39.59375 C 34.609375 -37.90625 36.566406 -35.703125 37.828125 -32.984375 L 34.578125 -30.984375 C 33.910156 -32.359375 33.09375 -33.515625 32.125 -34.453125 C 31.164062 -35.398438 30.132812 -36.171875 29.03125 -36.765625 C 27.9375 -37.359375 26.796875 -37.78125 25.609375 -38.03125 C 24.429688 -38.289062 23.269531 -38.421875 22.125 -38.421875 C 19.613281 -38.421875 17.390625 -37.90625 15.453125 -36.875 C 13.523438 -35.851562 11.898438 -34.515625 10.578125 -32.859375 C 9.265625 -31.210938 8.273438 -29.359375 7.609375 -27.296875 C 6.941406 -25.234375 6.609375 -23.140625 6.609375 -21.015625 C 6.609375 -18.691406 7.007812 -16.46875 7.8125 -14.34375 C 8.625 -12.21875 9.726562 -10.335938 11.125 -8.703125 C 12.519531 -7.066406 14.171875 -5.765625 16.078125 -4.796875 C 17.984375 -3.835938 20.0625 -3.359375 22.3125 -3.359375 C 23.488281 -3.359375 24.695312 -3.503906 25.9375 -3.796875 C 27.175781 -4.097656 28.375 -4.570312 29.53125 -5.21875 C 30.695312 -5.875 31.769531 -6.679688 32.75 -7.640625 C 33.738281 -8.609375 34.566406 -9.78125 35.234375 -11.15625 L 38.65625 -9.390625 C 37.988281 -7.804688 37.046875 -6.414062 35.828125 -5.21875 C 34.609375 -4.019531 33.25 -3.003906 31.75 -2.171875 C 30.25 -1.347656 28.660156 -0.71875 26.984375 -0.28125 C 25.316406 0.144531 23.679688 0.359375 22.078125 0.359375 C 19.203125 0.359375 16.5625 -0.269531 14.15625 -1.53125 C 11.757812 -2.789062 9.695312 -4.429688 7.96875 -6.453125 C 6.238281 -8.484375 4.890625 -10.785156 3.921875 -13.359375 C 2.960938 -15.941406 2.484375 -18.570312 2.484375 -21.25 Z M 2.484375 -21.25 "/></g></g></g><path fill="#8dc740" d="M 222.230469 131.207031 L 214.945312 131.207031 L 214.945312 108.328125 C 214.945312 105.976562 213.109375 103.960938 210.765625 103.917969 C 208.375 103.875 206.425781 105.804688 206.425781 108.1875 L 206.425781 131.207031 L 189.015625 131.207031 L 189.015625 108.328125 C 189.015625 105.976562 187.179688 103.960938 184.832031 103.917969 C 182.445312 103.875 180.492188 105.804688 180.492188 108.1875 L 180.492188 131.207031 L 173.207031 131.207031 C 169.660156 131.207031 166.785156 134.085938 166.785156 137.640625 L 166.785156 138.628906 C 166.785156 142.183594 169.660156 145.066406 173.207031 145.066406 L 173.207031 160.472656 C 173.207031 166.382812 175.519531 172.054688 179.652344 176.269531 L 189.507812 186.335938 L 189.507812 191.742188 C 189.507812 193.03125 190.546875 194.070312 191.828125 194.070312 L 203.609375 194.070312 C 204.890625 194.070312 205.929688 193.03125 205.929688 191.742188 L 205.929688 186.335938 L 215.785156 176.269531 C 219.917969 172.054688 222.230469 166.382812 222.230469 160.472656 L 222.230469 145.066406 C 225.777344 145.066406 228.652344 142.183594 228.652344 138.628906 L 228.652344 137.640625 C 228.652344 134.085938 225.777344 131.207031 222.230469 131.207031 " fill-opacity="1" fill-rule="nonzero"/><path fill="#8dc740" d="M 202.214844 185.820312 C 202.214844 185.820312 202.242188 188.058594 202.292969 192.253906 C 202.316406 194.351562 202.34375 196.941406 202.375 199.984375 C 202.390625 201.503906 202.40625 203.140625 202.425781 204.882812 C 202.433594 205.753906 202.441406 206.65625 202.453125 207.582031 C 202.46875 207.992188 202.488281 208.40625 202.507812 208.828125 C 202.519531 209.058594 202.523438 209.328125 202.542969 209.527344 C 202.566406 209.707031 202.589844 209.890625 202.613281 210.070312 C 202.636719 210.253906 202.65625 210.4375 202.679688 210.621094 L 202.707031 210.898438 L 202.765625 211.207031 C 202.839844 211.617188 202.914062 212.03125 202.992188 212.453125 C 203.097656 212.863281 203.199219 213.28125 203.308594 213.707031 C 203.410156 214.128906 203.574219 214.539062 203.703125 214.96875 C 204.277344 216.652344 205.070312 218.351562 206.125 219.980469 C 208.21875 223.234375 211.382812 226.25 215.429688 228.226562 C 217.449219 229.207031 219.667969 229.929688 222 230.308594 C 224.339844 230.667969 226.785156 230.65625 229.234375 230.253906 C 231.679688 229.835938 234.113281 228.980469 236.4375 227.71875 L 236.550781 227.664062 C 236.652344 227.605469 236.53125 227.675781 236.59375 227.640625 L 237.375 227.1875 C 237.726562 226.984375 238.074219 226.78125 238.425781 226.574219 C 238.765625 226.375 239.148438 226.164062 239.457031 225.964844 C 239.777344 225.765625 240.09375 225.566406 240.410156 225.367188 C 241.679688 224.59375 242.988281 223.6875 244.296875 222.800781 C 246.886719 220.976562 249.433594 218.976562 251.914062 216.808594 C 252.527344 216.257812 253.160156 215.722656 253.761719 215.148438 C 254.367188 214.578125 254.972656 214.003906 255.582031 213.425781 C 256.171875 212.828125 256.761719 212.230469 257.359375 211.628906 C 257.953125 211.027344 258.515625 210.386719 259.101562 209.765625 C 261.394531 207.238281 263.59375 204.546875 265.652344 201.6875 C 267.71875 198.832031 269.65625 195.816406 271.40625 192.640625 C 274.914062 186.300781 277.75 179.355469 279.675781 171.996094 C 280.640625 168.316406 281.382812 164.535156 281.875 160.679688 C 282.359375 156.828125 282.597656 152.90625 282.578125 148.949219 L 282.582031 148.203125 C 282.578125 148.015625 282.585938 148.253906 282.582031 148.15625 L 282.574219 147.960938 L 282.5625 147.566406 L 282.5 145.988281 L 282.4375 144.40625 C 282.417969 143.882812 282.40625 143.335938 282.351562 142.875 C 282.15625 140.949219 282.050781 139.046875 281.730469 137.035156 C 281.242188 133.054688 280.359375 129.101562 279.304688 125.179688 C 279.019531 124.203125 278.734375 123.226562 278.445312 122.25 C 278.3125 121.757812 278.125 121.285156 277.960938 120.800781 L 277.457031 119.355469 L 276.953125 117.90625 C 276.78125 117.421875 276.578125 116.953125 276.386719 116.476562 C 276.003906 115.527344 275.617188 114.574219 275.230469 113.625 C 274.351562 111.769531 273.554688 109.867188 272.550781 108.058594 L 271.835938 106.683594 L 271.476562 105.996094 L 271.085938 105.324219 C 270.566406 104.433594 270.039062 103.539062 269.519531 102.644531 C 268.988281 101.75 268.394531 100.898438 267.835938 100.019531 L 266.984375 98.714844 L 266.074219 97.449219 C 265.457031 96.609375 264.871094 95.746094 264.230469 94.921875 L 262.28125 92.472656 L 261.792969 91.859375 L 261.277344 91.269531 L 259.207031 88.910156 C 258.871094 88.511719 258.488281 88.152344 258.128906 87.769531 L 255.945312 85.507812 L 253.65625 83.347656 C 252.910156 82.609375 252.089844 81.953125 251.296875 81.261719 C 250.5 80.582031 249.71875 79.875 248.875 79.246094 L 246.390625 77.308594 L 243.8125 75.484375 C 240.34375 73.109375 236.75 70.882812 232.964844 69.035156 C 232.496094 68.800781 232.03125 68.546875 231.558594 68.320312 L 230.117188 67.671875 L 228.679688 67.019531 C 228.199219 66.800781 227.726562 66.574219 227.230469 66.394531 L 224.296875 65.230469 C 223.8125 65.023438 223.308594 64.867188 222.8125 64.699219 L 221.316406 64.191406 L 219.824219 63.679688 C 219.324219 63.519531 218.816406 63.386719 218.3125 63.238281 C 217.300781 62.957031 216.292969 62.652344 215.277344 62.378906 C 213.230469 61.921875 211.199219 61.378906 209.121094 61.054688 L 207.574219 60.777344 L 206.800781 60.636719 L 206.019531 60.535156 L 202.90625 60.132812 C 202.386719 60.054688 201.863281 60.027344 201.339844 59.984375 L 198.214844 59.742188 C 197.691406 59.695312 197.167969 59.703125 196.648438 59.683594 C 195.601562 59.652344 194.558594 59.625 193.515625 59.597656 C 193.507812 59.59375 193.25 59.59375 193.453125 59.589844 L 193.242188 59.59375 L 192.828125 59.605469 L 190.347656 59.664062 L 188.691406 59.703125 L 187.175781 59.816406 C 186.167969 59.890625 185.160156 59.96875 184.15625 60.042969 C 167.605469 61.707031 151.929688 68.117188 139.269531 77.679688 C 138.484375 78.289062 137.707031 78.898438 136.925781 79.503906 C 136.53125 79.800781 136.160156 80.125 135.785156 80.449219 L 134.664062 81.410156 C 133.140625 82.660156 131.757812 84.054688 130.332031 85.382812 C 129.632812 86.0625 128.976562 86.785156 128.296875 87.480469 L 127.289062 88.527344 C 126.949219 88.875 126.648438 89.25 126.324219 89.613281 C 125.6875 90.339844 125.054688 91.066406 124.421875 91.789062 C 123.804688 92.527344 123.222656 93.292969 122.625 94.039062 C 117.863281 100.035156 114.070312 106.566406 111.085938 113.226562 C 110.683594 114.046875 110.367188 114.902344 110.027344 115.742188 C 109.691406 116.582031 109.355469 117.421875 109.023438 118.257812 C 108.730469 119.109375 108.4375 119.957031 108.144531 120.804688 C 107.996094 121.226562 107.851562 121.644531 107.707031 122.066406 C 107.554688 122.488281 107.453125 122.921875 107.324219 123.34375 C 107.074219 124.195312 106.828125 125.046875 106.582031 125.890625 L 106.394531 126.527344 L 106.242188 127.164062 C 106.140625 127.59375 106.039062 128.019531 105.9375 128.445312 C 105.738281 129.296875 105.535156 130.144531 105.335938 130.988281 C 105.179688 131.839844 105.019531 132.691406 104.863281 133.535156 C 104.511719 135.222656 104.320312 136.921875 104.09375 138.597656 C 104.035156 139.019531 103.980469 139.4375 103.921875 139.851562 C 103.886719 140.273438 103.855469 140.691406 103.820312 141.109375 C 103.75 141.945312 103.679688 142.78125 103.613281 143.609375 C 103.523438 144.4375 103.519531 145.265625 103.488281 146.089844 C 103.460938 146.914062 103.4375 147.734375 103.410156 148.546875 L 103.390625 149.09375 L 103.394531 149.730469 C 103.398438 150.160156 103.398438 150.582031 103.398438 151.007812 C 103.402344 151.425781 103.398438 151.863281 103.410156 152.265625 C 103.425781 152.65625 103.441406 153.046875 103.457031 153.4375 C 103.492188 154.980469 103.621094 156.585938 103.734375 158.140625 C 103.8125 158.921875 103.886719 159.699219 103.964844 160.46875 C 104.039062 161.242188 104.152344 162.003906 104.242188 162.765625 C 104.644531 165.804688 105.1875 168.757812 105.835938 171.609375 C 107.148438 177.316406 108.894531 182.621094 110.925781 187.460938 C 111.164062 188.074219 111.433594 188.664062 111.695312 189.257812 C 111.960938 189.84375 112.207031 190.4375 112.480469 191.011719 C 113.035156 192.15625 113.558594 193.296875 114.136719 194.378906 C 115.230469 196.585938 116.429688 198.644531 117.59375 200.613281 C 118.203125 201.582031 118.777344 202.550781 119.382812 203.464844 C 119.996094 204.378906 120.570312 205.292969 121.191406 206.144531 C 121.796875 207.003906 122.382812 207.855469 122.992188 208.65625 C 123.292969 209.058594 123.589844 209.457031 123.882812 209.851562 C 124.1875 210.238281 124.488281 210.617188 124.785156 210.996094 C 127.148438 214.011719 129.441406 216.578125 131.507812 218.753906 C 132.03125 219.292969 132.535156 219.8125 133.023438 220.308594 C 133.503906 220.808594 133.996094 221.261719 134.449219 221.707031 C 135.355469 222.613281 136.222656 223.390625 136.984375 224.097656 C 138.527344 225.503906 139.738281 226.566406 140.578125 227.25 C 141.40625 227.953125 141.835938 228.316406 141.835938 228.316406 L 141.644531 228.601562 C 141.644531 228.601562 141.148438 228.335938 140.1875 227.824219 C 139.222656 227.3125 137.816406 226.503906 136.007812 225.394531 C 134.210938 224.265625 132.03125 222.808594 129.566406 220.933594 C 127.121094 219.042969 124.386719 216.742188 121.523438 213.933594 C 121.167969 213.578125 120.808594 213.222656 120.441406 212.859375 C 120.085938 212.484375 119.726562 212.109375 119.359375 211.726562 C 118.621094 210.96875 117.898438 210.160156 117.164062 209.328125 C 115.6875 207.664062 114.226562 205.847656 112.742188 203.914062 C 111.308594 201.949219 109.832031 199.878906 108.441406 197.640625 C 107.726562 196.53125 107.070312 195.359375 106.378906 194.175781 C 106.035156 193.585938 105.71875 192.972656 105.382812 192.363281 C 105.046875 191.75 104.710938 191.136719 104.402344 190.5 C 99.257812 180.410156 95.355469 167.914062 94.570312 153.777344 C 93.777344 139.855469 96.003906 124.289062 102.355469 109.421875 C 102.761719 108.496094 103.171875 107.570312 103.585938 106.640625 L 103.894531 105.941406 L 104.238281 105.257812 C 104.464844 104.800781 104.695312 104.347656 104.925781 103.886719 C 105.152344 103.429688 105.382812 102.972656 105.617188 102.515625 C 105.847656 102.054688 106.070312 101.589844 106.332031 101.148438 C 106.839844 100.25 107.347656 99.351562 107.855469 98.449219 C 108.347656 97.535156 108.917969 96.664062 109.472656 95.78125 C 110.03125 94.898438 110.574219 94.003906 111.15625 93.132812 C 111.761719 92.273438 112.363281 91.410156 112.96875 90.546875 C 113.277344 90.117188 113.566406 89.675781 113.890625 89.253906 L 114.863281 88 C 115.515625 87.164062 116.15625 86.3125 116.828125 85.484375 C 117.519531 84.671875 118.214844 83.859375 118.914062 83.042969 C 119.265625 82.640625 119.597656 82.21875 119.96875 81.828125 L 121.074219 80.652344 C 121.820312 79.871094 122.542969 79.066406 123.3125 78.304688 C 124.875 76.804688 126.402344 75.25 128.074219 73.839844 L 129.308594 72.753906 C 129.71875 72.390625 130.128906 72.027344 130.566406 71.691406 C 131.425781 71.007812 132.285156 70.320312 133.148438 69.632812 C 136.664062 66.96875 140.324219 64.414062 144.234375 62.210938 L 145.6875 61.363281 C 146.175781 61.085938 146.683594 60.839844 147.179688 60.574219 C 148.175781 60.054688 149.179688 59.535156 150.179688 59.015625 C 151.207031 58.542969 152.234375 58.066406 153.261719 57.59375 C 153.78125 57.363281 154.289062 57.105469 154.816406 56.894531 L 156.398438 56.261719 C 160.597656 54.507812 164.980469 53.148438 169.429688 51.996094 C 170.550781 51.730469 171.671875 51.46875 172.792969 51.203125 C 173.917969 50.949219 175.058594 50.773438 176.195312 50.554688 L 177.898438 50.242188 C 178.46875 50.140625 179.046875 50.082031 179.621094 50 C 180.769531 49.847656 181.917969 49.699219 183.066406 49.546875 C 184.253906 49.449219 185.441406 49.351562 186.628906 49.253906 L 188.40625 49.121094 L 190.0625 49.070312 L 191.714844 49.019531 L 192.542969 48.992188 L 192.957031 48.980469 L 193.164062 48.976562 C 193.503906 48.972656 193.386719 48.976562 193.515625 48.976562 C 194.683594 49 195.851562 49.023438 197.019531 49.046875 C 197.601562 49.066406 198.1875 49.054688 198.769531 49.101562 L 202.277344 49.351562 C 202.859375 49.398438 203.445312 49.421875 204.027344 49.507812 C 205.191406 49.648438 206.355469 49.792969 207.519531 49.933594 L 208.394531 50.042969 L 211 50.492188 C 213.328125 50.847656 215.613281 51.425781 217.914062 51.933594 C 219.054688 52.230469 220.1875 52.5625 221.324219 52.875 C 221.890625 53.035156 222.460938 53.183594 223.023438 53.359375 L 226.382812 54.476562 C 226.941406 54.664062 227.507812 54.84375 228.054688 55.066406 L 231.355469 56.347656 C 231.910156 56.550781 232.449219 56.796875 232.988281 57.039062 L 234.605469 57.757812 L 236.222656 58.480469 C 236.761719 58.730469 237.28125 59.007812 237.808594 59.269531 C 254.800781 67.605469 269.183594 80.980469 278.90625 96.875 C 279.496094 97.878906 280.085938 98.882812 280.671875 99.886719 L 281.113281 100.636719 L 281.519531 101.410156 L 282.324219 102.953125 C 283.445312 104.988281 284.355469 107.121094 285.339844 109.210938 C 285.777344 110.28125 286.210938 111.347656 286.648438 112.417969 C 286.859375 112.953125 287.089844 113.480469 287.285156 114.023438 L 288.425781 117.277344 C 288.609375 117.820312 288.816406 118.355469 288.964844 118.910156 C 289.292969 120.011719 289.617188 121.105469 289.941406 122.203125 C 291.132812 126.617188 292.121094 131.066406 292.683594 135.542969 C 293.039062 137.746094 293.1875 140.085938 293.382812 142.375 C 293.441406 142.964844 293.449219 143.476562 293.464844 144.003906 L 293.519531 145.585938 L 293.574219 147.164062 L 293.585938 147.558594 L 293.59375 147.753906 C 293.597656 147.789062 293.601562 148.15625 293.597656 148.097656 L 293.589844 148.929688 C 293.59375 153.367188 293.304688 157.765625 292.742188 162.089844 C 292.171875 166.417969 291.320312 170.660156 290.21875 174.789062 C 288.019531 183.050781 284.800781 190.832031 280.828125 197.921875 C 276.875 205.03125 272.101562 211.398438 266.910156 216.996094 C 266.253906 217.683594 265.617188 218.390625 264.945312 219.058594 C 264.273438 219.722656 263.601562 220.386719 262.9375 221.046875 C 262.25 221.6875 261.566406 222.320312 260.886719 222.953125 C 260.207031 223.589844 259.492188 224.179688 258.804688 224.789062 C 256.007812 227.179688 253.144531 229.386719 250.230469 231.394531 C 248.753906 232.375 247.324219 233.34375 245.78125 234.265625 C 245.402344 234.496094 245.027344 234.730469 244.648438 234.957031 C 244.269531 235.195312 243.933594 235.371094 243.574219 235.578125 C 243.222656 235.777344 242.871094 235.980469 242.519531 236.175781 L 241.996094 236.476562 L 241.734375 236.625 C 241.707031 236.640625 241.5 236.757812 241.511719 236.746094 L 241.355469 236.824219 C 238.027344 238.59375 234.460938 239.808594 230.882812 240.382812 C 227.292969 240.929688 223.71875 240.875 220.347656 240.300781 C 216.980469 239.703125 213.820312 238.617188 210.964844 237.171875 C 205.25 234.269531 200.820312 229.921875 197.890625 225.214844 C 196.417969 222.855469 195.316406 220.40625 194.539062 217.984375 C 194.359375 217.375 194.152344 216.777344 194.015625 216.171875 C 193.875 215.570312 193.738281 214.972656 193.601562 214.382812 C 193.507812 213.785156 193.410156 213.199219 193.316406 212.617188 L 193.25 212.183594 L 193.203125 211.71875 C 193.175781 211.410156 193.148438 211.101562 193.121094 210.796875 C 193.09375 210.492188 193.066406 210.191406 193.042969 209.890625 C 193.023438 209.605469 193.027344 209.394531 193.019531 209.148438 C 193.007812 208.617188 192.996094 208.097656 192.988281 207.582031 C 192.996094 206.65625 193.003906 205.753906 193.015625 204.882812 C 193.03125 203.140625 193.046875 201.503906 193.0625 199.984375 C 193.09375 196.941406 193.121094 194.351562 193.144531 192.253906 C 193.195312 188.058594 193.222656 185.820312 193.222656 185.820312 L 202.214844 185.820312 " fill-opacity="1" fill-rule="nonzero"/><path fill="#8dc740" d="M 173.183594 257.46875 C 103.019531 257.53125 109.871094 194.019531 109.871094 194.019531 C 109.871094 194.019531 110.734375 193.929688 112.257812 193.871094 C 112.269531 193.886719 112.269531 193.898438 112.277344 193.914062 C 113.398438 196.300781 114.621094 198.53125 115.8125 200.652344 C 117.058594 202.742188 118.296875 204.722656 119.566406 206.546875 C 120.199219 207.464844 120.824219 208.347656 121.464844 209.191406 C 121.785156 209.609375 122.097656 210.03125 122.40625 210.441406 C 122.726562 210.84375 123.046875 211.242188 123.355469 211.636719 C 125.867188 214.765625 128.3125 217.371094 130.519531 219.539062 C 132.742188 221.691406 134.742188 223.394531 136.390625 224.726562 C 138.054688 226.042969 139.359375 227.011719 140.257812 227.632812 C 141.152344 228.257812 141.613281 228.578125 141.613281 228.578125 L 141.832031 228.316406 C 141.832031 228.316406 141.453125 227.90625 140.710938 227.105469 C 139.957031 226.332031 138.882812 225.136719 137.511719 223.554688 C 136.835938 222.761719 136.070312 221.886719 135.277344 220.882812 C 134.878906 220.382812 134.445312 219.878906 134.023438 219.324219 C 133.601562 218.773438 133.164062 218.195312 132.703125 217.601562 C 130.90625 215.195312 128.933594 212.375 126.9375 209.105469 C 126.6875 208.695312 126.433594 208.28125 126.175781 207.863281 C 125.933594 207.4375 125.683594 207.003906 125.433594 206.566406 C 124.921875 205.703125 124.441406 204.785156 123.941406 203.859375 C 123.425781 202.941406 122.964844 201.964844 122.460938 200.992188 C 121.964844 200.007812 121.507812 198.976562 121.019531 197.949219 C 120.453125 196.671875 119.882812 195.363281 119.339844 194.011719 C 137.007812 195.257812 173.230469 204.296875 173.183594 257.46875 " fill-opacity="1" fill-rule="nonzero"/><path fill="#8dc740" d="M 160.703125 184.007812 C 146.828125 138.105469 106.832031 155.183594 106.832031 155.183594 C 106.832031 155.183594 114.921875 197.992188 160.703125 184.007812 " fill-opacity="1" fill-rule="nonzero"/><path fill="#8dc740" d="M 54.421875 213.996094 C 105.792969 201.5 89.46875 156.238281 89.46875 156.238281 C 89.46875 156.238281 41.859375 162.535156 54.421875 213.996094 " fill-opacity="1" fill-rule="nonzero"/><g clip-path="url(#8977ffe2c0)"><path fill="#929497" d="M 312.648438 164.65625 C 312.488281 164.65625 312.324219 164.648438 312.160156 164.628906 C 309.691406 164.359375 307.90625 162.136719 308.175781 159.664062 C 308.617188 155.574219 308.84375 151.398438 308.84375 147.257812 C 308.84375 108.3125 289.277344 72.507812 256.503906 51.480469 C 254.410156 50.136719 253.800781 47.351562 255.140625 45.257812 C 256.476562 43.160156 259.257812 42.550781 261.351562 43.890625 C 278.328125 54.78125 292.496094 69.847656 302.324219 87.460938 C 312.472656 105.632812 317.835938 126.308594 317.835938 147.257812 C 317.835938 151.722656 317.589844 156.222656 317.113281 160.636719 C 316.863281 162.945312 314.914062 164.65625 312.648438 164.65625 " fill-opacity="1" fill-rule="nonzero"/></g><g clip-path="url(#509232b39f)"><path fill="#929497" d="M 214.511719 268.367188 C 212.347656 268.367188 210.4375 266.796875 210.082031 264.585938 C 209.683594 262.128906 211.34375 259.816406 213.796875 259.414062 C 259.554688 251.957031 296.757812 216.40625 306.375 170.949219 C 306.890625 168.511719 309.277344 166.957031 311.707031 167.476562 C 314.132812 167.992188 315.6875 170.382812 315.171875 172.816406 C 310.0625 196.960938 297.898438 218.789062 279.992188 235.9375 C 262.03125 253.136719 239.640625 264.332031 215.238281 268.308594 C 214.992188 268.347656 214.75 268.367188 214.511719 268.367188 " fill-opacity="1" fill-rule="nonzero"/></g><g clip-path="url(#3b6b25c73f)"><path fill="#929497" d="M 81.699219 120.640625 C 81.308594 120.640625 80.910156 120.589844 80.515625 120.480469 C 78.121094 119.828125 76.707031 117.351562 77.359375 114.949219 C 84.28125 89.488281 99.617188 66.511719 120.546875 50.257812 C 142.152344 33.480469 168.050781 24.609375 195.453125 24.609375 C 214.125 24.609375 232.050781 28.714844 248.734375 36.8125 C 250.96875 37.898438 251.902344 40.59375 250.820312 42.832031 C 249.738281 45.070312 247.046875 46.007812 244.816406 44.925781 C 229.363281 37.421875 212.753906 33.621094 195.453125 33.621094 C 144.421875 33.621094 99.429688 68.039062 86.035156 117.316406 C 85.488281 119.324219 83.675781 120.640625 81.699219 120.640625 " fill-opacity="1" fill-rule="nonzero"/></g></svg>