<svg xmlns="http://www.w3.org/2000/svg" xmlns:xlink="http://www.w3.org/1999/xlink" width="500" zoomAndPan="magnify" viewBox="0 0 375 374.999991" height="500" preserveAspectRatio="xMidYMid meet" version="1.0"><defs><g/><clipPath id="842d267207"><path d="M 142.660156 118.265625 L 185.226562 118.265625 L 185.226562 199.617188 L 142.660156 199.617188 Z M 142.660156 118.265625 " clip-rule="nonzero"/></clipPath><clipPath id="398b432367"><path d="M 112.75 201.183594 L 183.589844 201.183594 L 183.589844 268.722656 L 112.75 268.722656 Z M 112.75 201.183594 " clip-rule="nonzero"/></clipPath><clipPath id="3d9205eae7"><path d="M 23 105.972656 L 141 105.972656 L 141 171 L 23 171 Z M 23 105.972656 " clip-rule="nonzero"/></clipPath></defs><g fill="#8cc63f" fill-opacity="1"><g transform="translate(198.464506, 184.425704)"><g><path d="M 33.546875 -7.15625 L 33.546875 0 L 4.375 0 L 4.375 -42 L 33.015625 -42 L 33.015625 -34.84375 L 12.546875 -34.84375 L 12.546875 -24.734375 L 30.234375 -24.734375 L 30.234375 -18.109375 L 12.546875 -18.109375 L 12.546875 -7.15625 Z M 33.546875 -7.15625 "/></g></g></g><g fill="#8cc63f" fill-opacity="1"><g transform="translate(234.009229, 184.425704)"><g><path d="M 1.828125 -21.296875 C 1.828125 -23.859375 2.289062 -26.390625 3.21875 -28.890625 C 4.144531 -31.398438 5.492188 -33.640625 7.265625 -35.609375 C 9.046875 -37.578125 11.21875 -39.171875 13.78125 -40.390625 C 16.34375 -41.617188 19.257812 -42.234375 22.53125 -42.234375 C 26.394531 -42.234375 29.738281 -41.382812 32.5625 -39.6875 C 35.382812 -38 37.484375 -35.789062 38.859375 -33.0625 L 32.59375 -28.75 C 32.039062 -29.9375 31.367188 -30.929688 30.578125 -31.734375 C 29.796875 -32.546875 28.945312 -33.1875 28.03125 -33.65625 C 27.125 -34.132812 26.175781 -34.476562 25.1875 -34.6875 C 24.207031 -34.90625 23.242188 -35.015625 22.296875 -35.015625 C 20.242188 -35.015625 18.457031 -34.597656 16.9375 -33.765625 C 15.425781 -32.941406 14.164062 -31.867188 13.15625 -30.546875 C 12.15625 -29.234375 11.394531 -27.738281 10.875 -26.0625 C 10.363281 -24.382812 10.109375 -22.71875 10.109375 -21.0625 C 10.109375 -19.207031 10.40625 -17.421875 11 -15.703125 C 11.59375 -13.984375 12.429688 -12.472656 13.515625 -11.171875 C 14.597656 -9.878906 15.898438 -8.835938 17.421875 -8.046875 C 18.941406 -7.253906 20.609375 -6.859375 22.421875 -6.859375 C 23.367188 -6.859375 24.351562 -6.976562 25.375 -7.21875 C 26.40625 -7.457031 27.382812 -7.832031 28.3125 -8.34375 C 29.238281 -8.851562 30.09375 -9.507812 30.875 -10.3125 C 31.664062 -11.125 32.296875 -12.101562 32.765625 -13.25 L 39.453125 -9.40625 C 38.785156 -7.832031 37.828125 -6.441406 36.578125 -5.234375 C 35.335938 -4.035156 33.9375 -3.019531 32.375 -2.1875 C 30.820312 -1.363281 29.160156 -0.734375 27.390625 -0.296875 C 25.617188 0.140625 23.882812 0.359375 22.1875 0.359375 C 19.1875 0.359375 16.441406 -0.269531 13.953125 -1.53125 C 11.472656 -2.800781 9.332031 -4.453125 7.53125 -6.484375 C 5.738281 -8.515625 4.335938 -10.820312 3.328125 -13.40625 C 2.328125 -15.988281 1.828125 -18.617188 1.828125 -21.296875 Z M 1.828125 -21.296875 "/></g></g></g><g fill="#8cc63f" fill-opacity="1"><g transform="translate(274.581064, 184.425704)"><g><path d="M 39.6875 -42 L 39.6875 0 L 31.59375 0 L 31.59375 -17.921875 L 12.546875 -17.921875 L 12.546875 0 L 4.375 0 L 4.375 -42 L 12.546875 -42 L 12.546875 -25.015625 L 31.59375 -25.015625 L 31.59375 -42 Z M 39.6875 -42 "/></g></g></g><g fill="#8cc63f" fill-opacity="1"><g transform="translate(318.642314, 184.425704)"><g><path d="M 22.296875 0.296875 C 19.222656 0.296875 16.429688 -0.300781 13.921875 -1.5 C 11.421875 -2.707031 9.273438 -4.304688 7.484375 -6.296875 C 5.691406 -8.285156 4.300781 -10.5625 3.3125 -13.125 C 2.320312 -15.695312 1.828125 -18.320312 1.828125 -21 C 1.828125 -23.800781 2.347656 -26.484375 3.390625 -29.046875 C 4.441406 -31.609375 5.882812 -33.875 7.71875 -35.84375 C 9.550781 -37.820312 11.726562 -39.390625 14.25 -40.546875 C 16.78125 -41.710938 19.523438 -42.296875 22.484375 -42.296875 C 25.515625 -42.296875 28.28125 -41.671875 30.78125 -40.421875 C 33.289062 -39.179688 35.429688 -37.554688 37.203125 -35.546875 C 38.984375 -33.535156 40.363281 -31.25 41.34375 -28.6875 C 42.332031 -26.125 42.828125 -23.519531 42.828125 -20.875 C 42.828125 -18.082031 42.3125 -15.410156 41.28125 -12.859375 C 40.257812 -10.316406 38.84375 -8.066406 37.03125 -6.109375 C 35.21875 -4.160156 33.046875 -2.601562 30.515625 -1.4375 C 27.992188 -0.28125 25.253906 0.296875 22.296875 0.296875 Z M 10.109375 -21 C 10.109375 -19.1875 10.382812 -17.429688 10.9375 -15.734375 C 11.488281 -14.035156 12.285156 -12.535156 13.328125 -11.234375 C 14.378906 -9.929688 15.664062 -8.882812 17.1875 -8.09375 C 18.707031 -7.3125 20.429688 -6.921875 22.359375 -6.921875 C 24.328125 -6.921875 26.070312 -7.320312 27.59375 -8.125 C 29.113281 -8.9375 30.394531 -10.015625 31.4375 -11.359375 C 32.488281 -12.703125 33.28125 -14.207031 33.8125 -15.875 C 34.34375 -17.550781 34.609375 -19.257812 34.609375 -21 C 34.609375 -22.8125 34.320312 -24.566406 33.75 -26.265625 C 33.175781 -27.960938 32.363281 -29.460938 31.3125 -30.765625 C 30.269531 -32.066406 28.988281 -33.097656 27.46875 -33.859375 C 25.957031 -34.628906 24.253906 -35.015625 22.359375 -35.015625 C 20.390625 -35.015625 18.632812 -34.609375 17.09375 -33.796875 C 15.550781 -32.992188 14.269531 -31.929688 13.25 -30.609375 C 12.226562 -29.285156 11.445312 -27.785156 10.90625 -26.109375 C 10.375 -24.441406 10.109375 -22.738281 10.109375 -21 Z M 10.109375 -21 "/></g></g></g><g fill="#929497" fill-opacity="1"><g transform="translate(201.657956, 233.687609)"><g><path d="M 4.6875 0 L 4.6875 -37.375 L 8.375 -37.375 L 8.375 -3.265625 L 29.953125 -3.265625 L 29.953125 0 Z M 4.6875 0 "/></g></g></g><g fill="#929497" fill-opacity="1"><g transform="translate(232.346643, 233.687609)"><g><path d="M 19.734375 0.265625 C 17.140625 0.265625 14.765625 -0.269531 12.609375 -1.34375 C 10.453125 -2.414062 8.597656 -3.835938 7.046875 -5.609375 C 5.503906 -7.378906 4.3125 -9.40625 3.46875 -11.6875 C 2.625 -13.96875 2.203125 -16.300781 2.203125 -18.6875 C 2.203125 -21.175781 2.648438 -23.5625 3.546875 -25.84375 C 4.441406 -28.125 5.679688 -30.140625 7.265625 -31.890625 C 8.847656 -33.648438 10.707031 -35.046875 12.84375 -36.078125 C 14.988281 -37.117188 17.304688 -37.640625 19.796875 -37.640625 C 22.390625 -37.640625 24.765625 -37.085938 26.921875 -35.984375 C 29.078125 -34.878906 30.921875 -33.429688 32.453125 -31.640625 C 33.984375 -29.847656 35.164062 -27.816406 36 -25.546875 C 36.84375 -23.285156 37.265625 -20.984375 37.265625 -18.640625 C 37.265625 -16.140625 36.816406 -13.75 35.921875 -11.46875 C 35.023438 -9.1875 33.796875 -7.175781 32.234375 -5.4375 C 30.679688 -3.707031 28.832031 -2.320312 26.6875 -1.28125 C 24.550781 -0.25 22.234375 0.265625 19.734375 0.265625 Z M 5.890625 -18.6875 C 5.890625 -16.65625 6.222656 -14.695312 6.890625 -12.8125 C 7.554688 -10.9375 8.503906 -9.269531 9.734375 -7.8125 C 10.960938 -6.351562 12.421875 -5.191406 14.109375 -4.328125 C 15.796875 -3.472656 17.671875 -3.046875 19.734375 -3.046875 C 21.847656 -3.046875 23.765625 -3.503906 25.484375 -4.421875 C 27.203125 -5.335938 28.65625 -6.53125 29.84375 -8 C 31.039062 -9.476562 31.960938 -11.144531 32.609375 -13 C 33.253906 -14.863281 33.578125 -16.757812 33.578125 -18.6875 C 33.578125 -20.71875 33.234375 -22.671875 32.546875 -24.546875 C 31.867188 -26.429688 30.914062 -28.09375 29.6875 -29.53125 C 28.457031 -30.96875 27 -32.113281 25.3125 -32.96875 C 23.632812 -33.832031 21.773438 -34.265625 19.734375 -34.265625 C 17.628906 -34.265625 15.71875 -33.816406 14 -32.921875 C 12.28125 -32.023438 10.820312 -30.835938 9.625 -29.359375 C 8.4375 -27.890625 7.515625 -26.222656 6.859375 -24.359375 C 6.210938 -22.503906 5.890625 -20.613281 5.890625 -18.6875 Z M 5.890625 -18.6875 "/></g></g></g><g fill="#929497" fill-opacity="1"><g transform="translate(271.878731, 233.687609)"><g><path d="M 31.6875 -5.46875 C 28.21875 -1.644531 24.21875 0.265625 19.6875 0.265625 C 17.15625 0.265625 14.828125 -0.273438 12.703125 -1.359375 C 10.585938 -2.453125 8.75 -3.894531 7.1875 -5.6875 C 5.625 -7.476562 4.398438 -9.503906 3.515625 -11.765625 C 2.640625 -14.023438 2.203125 -16.347656 2.203125 -18.734375 C 2.203125 -21.234375 2.632812 -23.625 3.5 -25.90625 C 4.363281 -28.1875 5.566406 -30.191406 7.109375 -31.921875 C 8.648438 -33.660156 10.472656 -35.046875 12.578125 -36.078125 C 14.679688 -37.117188 16.984375 -37.640625 19.484375 -37.640625 C 21.304688 -37.640625 22.96875 -37.4375 24.46875 -37.03125 C 25.976562 -36.625 27.320312 -36.0625 28.5 -35.34375 C 29.675781 -34.625 30.691406 -33.765625 31.546875 -32.765625 C 32.410156 -31.765625 33.144531 -30.671875 33.75 -29.484375 L 30.90625 -27.578125 C 29.675781 -29.898438 28.078125 -31.601562 26.109375 -32.6875 C 24.140625 -33.78125 21.910156 -34.328125 19.421875 -34.328125 C 17.347656 -34.328125 15.476562 -33.882812 13.8125 -33 C 12.144531 -32.125 10.722656 -30.957031 9.546875 -29.5 C 8.378906 -28.050781 7.476562 -26.382812 6.84375 -24.5 C 6.207031 -22.625 5.890625 -20.6875 5.890625 -18.6875 C 5.890625 -16.582031 6.25 -14.582031 6.96875 -12.6875 C 7.6875 -10.789062 8.675781 -9.128906 9.9375 -7.703125 C 11.207031 -6.285156 12.691406 -5.15625 14.390625 -4.3125 C 16.097656 -3.46875 17.953125 -3.046875 19.953125 -3.046875 C 22.085938 -3.046875 24.128906 -3.546875 26.078125 -4.546875 C 28.023438 -5.546875 29.894531 -7.132812 31.6875 -9.3125 L 31.6875 -15.53125 L 23.375 -15.53125 L 23.375 -18.375 L 34.796875 -18.375 L 34.796875 0 L 31.6875 0 Z M 31.6875 -5.46875 "/></g></g></g><g fill="#929497" fill-opacity="1"><g transform="translate(309.568441, 233.687609)"><g><path d="M 4.6875 0 L 4.6875 -37.375 L 8.375 -37.375 L 8.375 0 Z M 4.6875 0 "/></g></g></g><g fill="#929497" fill-opacity="1"><g transform="translate(322.622973, 233.687609)"><g><path d="M 2.203125 -18.953125 C 2.203125 -21.191406 2.597656 -23.425781 3.390625 -25.65625 C 4.179688 -27.882812 5.332031 -29.875 6.84375 -31.625 C 8.351562 -33.382812 10.210938 -34.816406 12.421875 -35.921875 C 14.628906 -37.023438 17.140625 -37.578125 19.953125 -37.578125 C 23.285156 -37.578125 26.132812 -36.820312 28.5 -35.3125 C 30.875 -33.8125 32.625 -31.847656 33.75 -29.421875 L 30.84375 -27.640625 C 30.25 -28.867188 29.519531 -29.898438 28.65625 -30.734375 C 27.800781 -31.578125 26.878906 -32.257812 25.890625 -32.78125 C 24.910156 -33.3125 23.894531 -33.691406 22.84375 -33.921875 C 21.789062 -34.148438 20.753906 -34.265625 19.734375 -34.265625 C 17.492188 -34.265625 15.515625 -33.804688 13.796875 -32.890625 C 12.078125 -31.984375 10.628906 -30.789062 9.453125 -29.3125 C 8.273438 -27.84375 7.382812 -26.1875 6.78125 -24.34375 C 6.1875 -22.5 5.890625 -20.628906 5.890625 -18.734375 C 5.890625 -16.671875 6.25 -14.691406 6.96875 -12.796875 C 7.6875 -10.898438 8.671875 -9.222656 9.921875 -7.765625 C 11.171875 -6.304688 12.644531 -5.144531 14.34375 -4.28125 C 16.039062 -3.425781 17.890625 -3 19.890625 -3 C 20.953125 -3 22.035156 -3.128906 23.140625 -3.390625 C 24.242188 -3.660156 25.3125 -4.082031 26.34375 -4.65625 C 27.382812 -5.238281 28.34375 -5.957031 29.21875 -6.8125 C 30.09375 -7.675781 30.828125 -8.722656 31.421875 -9.953125 L 34.484375 -8.375 C 33.878906 -6.96875 33.035156 -5.726562 31.953125 -4.65625 C 30.867188 -3.582031 29.660156 -2.675781 28.328125 -1.9375 C 26.992188 -1.207031 25.578125 -0.648438 24.078125 -0.265625 C 22.585938 0.117188 21.125 0.3125 19.6875 0.3125 C 17.125 0.3125 14.769531 -0.242188 12.625 -1.359375 C 10.488281 -2.484375 8.648438 -3.945312 7.109375 -5.75 C 5.566406 -7.5625 4.363281 -9.617188 3.5 -11.921875 C 2.632812 -14.222656 2.203125 -16.566406 2.203125 -18.953125 Z M 2.203125 -18.953125 "/></g></g></g><path fill="#8dc740" d="M 121.058594 177.144531 L 116.171875 177.144531 L 116.171875 161.871094 C 116.171875 160.300781 114.9375 158.957031 113.363281 158.925781 C 111.761719 158.898438 110.453125 160.183594 110.453125 161.777344 L 110.453125 177.144531 L 98.765625 177.144531 L 98.765625 161.871094 C 98.765625 160.300781 97.535156 158.957031 95.960938 158.925781 C 94.355469 158.898438 93.046875 160.183594 93.046875 161.777344 L 93.046875 177.144531 L 88.15625 177.144531 C 85.777344 177.144531 83.847656 179.070312 83.847656 181.441406 L 83.847656 182.105469 C 83.847656 184.476562 85.777344 186.398438 88.15625 186.398438 L 88.15625 196.6875 C 88.15625 200.632812 89.710938 204.421875 92.480469 207.234375 L 99.097656 213.957031 L 99.097656 217.566406 C 99.097656 218.425781 99.792969 219.121094 100.652344 219.121094 L 108.5625 219.121094 C 109.421875 219.121094 110.121094 218.425781 110.121094 217.566406 L 110.121094 213.957031 L 116.734375 207.234375 C 119.507812 204.421875 121.058594 200.632812 121.058594 196.6875 L 121.058594 186.398438 C 123.441406 186.398438 125.371094 184.476562 125.371094 182.105469 L 125.371094 181.441406 C 125.371094 179.070312 123.441406 177.144531 121.058594 177.144531 " fill-opacity="1" fill-rule="nonzero"/><path fill="#8dc740" d="M 107.625 213.609375 C 107.625 213.609375 107.644531 215.105469 107.679688 217.90625 C 107.691406 219.308594 107.710938 221.035156 107.734375 223.066406 C 107.742188 224.082031 107.753906 225.175781 107.765625 226.339844 C 107.773438 226.921875 107.777344 227.523438 107.785156 228.140625 C 107.796875 228.414062 107.808594 228.691406 107.824219 228.976562 C 107.832031 229.128906 107.832031 229.308594 107.847656 229.441406 C 107.863281 229.5625 107.878906 229.683594 107.894531 229.804688 C 107.910156 229.925781 107.921875 230.050781 107.9375 230.171875 L 107.957031 230.359375 L 107.996094 230.5625 C 108.042969 230.835938 108.09375 231.113281 108.144531 231.394531 C 108.21875 231.667969 108.289062 231.949219 108.359375 232.230469 C 108.425781 232.515625 108.539062 232.789062 108.625 233.074219 C 109.011719 234.199219 109.542969 235.332031 110.25 236.417969 C 111.65625 238.59375 113.777344 240.605469 116.492188 241.925781 C 117.851562 242.578125 119.339844 243.0625 120.90625 243.316406 C 122.476562 243.554688 124.117188 243.546875 125.761719 243.28125 C 127.402344 243 129.035156 242.429688 130.597656 241.585938 L 130.671875 241.550781 C 130.742188 241.511719 130.660156 241.558594 130.699219 241.535156 L 131.226562 241.230469 C 131.460938 241.097656 131.695312 240.960938 131.929688 240.824219 C 132.160156 240.6875 132.414062 240.550781 132.621094 240.417969 C 132.835938 240.285156 133.050781 240.148438 133.261719 240.015625 C 134.117188 239.5 134.992188 238.894531 135.871094 238.304688 C 137.609375 237.085938 139.316406 235.75 140.984375 234.300781 C 141.394531 233.933594 141.820312 233.578125 142.222656 233.195312 C 142.628906 232.8125 143.035156 232.429688 143.445312 232.042969 C 143.839844 231.644531 144.238281 231.246094 144.636719 230.84375 C 145.039062 230.441406 145.414062 230.015625 145.804688 229.597656 C 147.347656 227.914062 148.820312 226.113281 150.207031 224.207031 C 151.589844 222.300781 152.890625 220.285156 154.066406 218.167969 C 156.421875 213.933594 158.324219 209.296875 159.617188 204.378906 C 160.265625 201.921875 160.761719 199.398438 161.089844 196.828125 C 161.417969 194.253906 161.578125 191.632812 161.5625 188.992188 L 161.566406 188.496094 C 161.566406 188.371094 161.570312 188.527344 161.566406 188.464844 L 161.5625 188.332031 L 161.554688 188.070312 L 161.511719 187.015625 L 161.472656 185.960938 C 161.457031 185.609375 161.449219 185.246094 161.414062 184.9375 C 161.28125 183.652344 161.210938 182.378906 160.996094 181.039062 C 160.667969 178.378906 160.074219 175.738281 159.367188 173.121094 C 159.175781 172.472656 158.984375 171.820312 158.789062 171.167969 C 158.703125 170.835938 158.578125 170.519531 158.46875 170.199219 L 158.128906 169.230469 L 157.789062 168.265625 C 157.675781 167.941406 157.535156 167.628906 157.410156 167.3125 C 157.152344 166.679688 156.894531 166.042969 156.632812 165.40625 C 156.042969 164.167969 155.507812 162.898438 154.835938 161.691406 L 154.355469 160.773438 L 154.113281 160.3125 L 153.851562 159.867188 C 153.5 159.269531 153.148438 158.671875 152.800781 158.074219 C 152.441406 157.480469 152.042969 156.910156 151.667969 156.324219 L 151.097656 155.453125 L 150.488281 154.605469 C 150.074219 154.046875 149.679688 153.46875 149.25 152.921875 L 147.941406 151.285156 L 147.613281 150.875 L 147.265625 150.480469 L 146.574219 149.695312 L 145.878906 148.90625 C 145.652344 148.640625 145.394531 148.398438 145.15625 148.144531 L 143.6875 146.636719 L 142.152344 145.191406 C 141.652344 144.699219 141.101562 144.261719 140.570312 143.800781 C 140.03125 143.347656 139.511719 142.871094 138.945312 142.453125 L 137.273438 141.160156 L 135.546875 139.941406 C 133.214844 138.355469 130.804688 136.871094 128.265625 135.636719 C 127.949219 135.476562 127.640625 135.308594 127.320312 135.160156 L 126.355469 134.722656 L 125.390625 134.289062 C 125.066406 134.144531 124.746094 133.992188 124.417969 133.871094 L 122.445312 133.09375 C 122.121094 132.957031 121.785156 132.851562 121.449219 132.738281 L 120.445312 132.398438 L 119.445312 132.058594 C 119.109375 131.953125 118.765625 131.863281 118.429688 131.765625 C 117.75 131.578125 117.074219 131.375 116.394531 131.191406 C 115.019531 130.882812 113.65625 130.523438 112.261719 130.308594 L 110.703125 130.027344 L 110.179688 129.960938 L 108.089844 129.691406 C 107.742188 129.636719 107.390625 129.621094 107.039062 129.59375 L 104.941406 129.429688 C 104.589844 129.398438 104.238281 129.40625 103.890625 129.390625 C 103.1875 129.371094 102.488281 129.351562 101.785156 129.332031 C 101.78125 129.332031 101.609375 129.332031 101.742188 129.328125 L 101.605469 129.332031 L 101.328125 129.339844 L 99.660156 129.378906 L 98.550781 129.402344 L 97.53125 129.480469 C 96.855469 129.53125 96.179688 129.582031 95.503906 129.632812 C 84.398438 130.742188 73.875 135.023438 65.378906 141.40625 C 64.851562 141.8125 64.328125 142.21875 63.804688 142.625 C 63.539062 142.824219 63.289062 143.039062 63.039062 143.257812 L 62.289062 143.898438 C 61.265625 144.734375 60.335938 145.664062 59.378906 146.550781 C 58.910156 147.003906 58.46875 147.484375 58.011719 147.949219 L 57.335938 148.648438 C 57.109375 148.882812 56.90625 149.132812 56.6875 149.375 C 56.261719 149.859375 55.835938 150.34375 55.410156 150.828125 C 55 151.320312 54.609375 151.832031 54.207031 152.328125 C 51.011719 156.335938 48.464844 160.695312 46.460938 165.140625 C 46.191406 165.6875 45.980469 166.257812 45.75 166.820312 C 45.523438 167.382812 45.300781 167.941406 45.074219 168.5 C 44.878906 169.070312 44.683594 169.636719 44.488281 170.199219 C 44.386719 170.480469 44.289062 170.761719 44.191406 171.046875 C 44.09375 171.324219 44.023438 171.613281 43.933594 171.898438 C 43.769531 172.464844 43.601562 173.035156 43.4375 173.597656 L 43.3125 174.019531 L 43.210938 174.449219 C 43.140625 174.734375 43.074219 175.019531 43.007812 175.300781 C 42.871094 175.871094 42.734375 176.4375 42.601562 177 C 42.496094 177.570312 42.390625 178.136719 42.285156 178.703125 C 42.050781 179.828125 41.921875 180.960938 41.765625 182.082031 C 41.730469 182.363281 41.691406 182.640625 41.652344 182.921875 C 41.628906 183.199219 41.609375 183.480469 41.585938 183.761719 C 41.535156 184.316406 41.492188 184.875 41.445312 185.425781 C 41.386719 185.980469 41.382812 186.53125 41.363281 187.082031 C 41.34375 187.632812 41.328125 188.179688 41.308594 188.726562 L 41.296875 189.089844 L 41.296875 189.515625 C 41.300781 189.800781 41.300781 190.082031 41.300781 190.367188 C 41.304688 190.648438 41.300781 190.941406 41.308594 191.207031 C 41.320312 191.46875 41.328125 191.730469 41.339844 191.988281 C 41.363281 193.019531 41.449219 194.089844 41.527344 195.132812 C 41.578125 195.652344 41.628906 196.171875 41.679688 196.683594 C 41.730469 197.199219 41.804688 197.710938 41.867188 198.21875 C 42.136719 200.25 42.5 202.21875 42.9375 204.125 C 43.816406 207.933594 44.988281 211.476562 46.355469 214.707031 C 46.515625 215.117188 46.695312 215.511719 46.871094 215.90625 C 47.046875 216.300781 47.210938 216.695312 47.398438 217.078125 C 47.769531 217.84375 48.121094 218.601562 48.507812 219.328125 C 49.246094 220.800781 50.046875 222.175781 50.828125 223.488281 C 51.238281 224.136719 51.621094 224.78125 52.03125 225.394531 C 52.441406 226.003906 52.828125 226.613281 53.246094 227.179688 C 53.652344 227.757812 54.042969 228.324219 54.453125 228.859375 C 54.65625 229.128906 54.851562 229.394531 55.050781 229.65625 C 55.253906 229.914062 55.457031 230.167969 55.65625 230.421875 C 57.242188 232.433594 58.78125 234.148438 60.167969 235.601562 C 60.519531 235.960938 60.859375 236.308594 61.183594 236.640625 C 61.507812 236.972656 61.835938 237.273438 62.144531 237.574219 C 62.75 238.179688 63.332031 238.695312 63.84375 239.171875 C 64.878906 240.109375 65.691406 240.816406 66.257812 241.273438 C 66.8125 241.742188 67.097656 241.984375 67.097656 241.984375 L 66.972656 242.175781 C 66.972656 242.175781 66.640625 242 65.992188 241.65625 C 65.347656 241.316406 64.402344 240.777344 63.1875 240.035156 C 61.984375 239.28125 60.519531 238.308594 58.867188 237.054688 C 57.222656 235.796875 55.390625 234.257812 53.46875 232.382812 C 53.226562 232.148438 52.984375 231.90625 52.742188 231.664062 C 52.503906 231.414062 52.261719 231.164062 52.015625 230.910156 C 51.519531 230.402344 51.035156 229.863281 50.539062 229.308594 C 49.550781 228.195312 48.570312 226.984375 47.574219 225.691406 C 46.609375 224.382812 45.621094 223 44.6875 221.503906 C 44.207031 220.761719 43.765625 219.980469 43.300781 219.191406 C 43.070312 218.796875 42.859375 218.386719 42.632812 217.980469 C 42.410156 217.570312 42.183594 217.160156 41.972656 216.734375 C 38.523438 210 35.902344 201.65625 35.378906 192.21875 C 34.84375 182.921875 36.335938 172.527344 40.601562 162.601562 C 40.875 161.984375 41.148438 161.363281 41.425781 160.742188 L 41.632812 160.277344 L 41.863281 159.820312 C 42.019531 159.515625 42.171875 159.210938 42.324219 158.90625 C 42.480469 158.601562 42.632812 158.296875 42.789062 157.988281 C 42.945312 157.683594 43.09375 157.371094 43.269531 157.078125 C 43.609375 156.476562 43.953125 155.875 44.292969 155.273438 C 44.625 154.664062 45.003906 154.082031 45.378906 153.492188 C 45.753906 152.90625 46.117188 152.304688 46.507812 151.722656 C 46.914062 151.148438 47.320312 150.574219 47.726562 149.996094 C 47.929688 149.710938 48.125 149.417969 48.34375 149.136719 L 48.996094 148.296875 C 49.433594 147.738281 49.863281 147.171875 50.316406 146.617188 C 50.78125 146.074219 51.246094 145.53125 51.714844 144.988281 C 51.949219 144.71875 52.175781 144.4375 52.425781 144.175781 L 53.167969 143.390625 C 53.664062 142.871094 54.152344 142.332031 54.667969 141.824219 C 55.714844 140.824219 56.742188 139.785156 57.863281 138.84375 L 58.691406 138.117188 C 58.96875 137.875 59.242188 137.632812 59.535156 137.410156 C 60.113281 136.953125 60.691406 136.492188 61.269531 136.035156 C 63.628906 134.257812 66.085938 132.550781 68.710938 131.078125 L 69.6875 130.511719 C 70.015625 130.328125 70.351562 130.164062 70.6875 129.988281 C 71.355469 129.640625 72.027344 129.292969 72.699219 128.945312 C 73.390625 128.628906 74.078125 128.3125 74.769531 127.996094 C 75.117188 127.839844 75.460938 127.671875 75.8125 127.53125 L 76.875 127.105469 C 79.691406 125.933594 82.636719 125.027344 85.621094 124.257812 C 86.375 124.082031 87.125 123.90625 87.878906 123.730469 C 88.632812 123.558594 89.398438 123.441406 90.160156 123.292969 L 91.304688 123.085938 C 91.6875 123.019531 92.074219 122.980469 92.460938 122.925781 C 93.230469 122.824219 94.003906 122.722656 94.773438 122.621094 C 95.570312 122.558594 96.367188 122.492188 97.164062 122.429688 L 98.359375 122.335938 L 99.46875 122.304688 L 100.578125 122.269531 L 101.136719 122.253906 L 101.414062 122.246094 L 101.550781 122.242188 C 101.777344 122.238281 101.699219 122.242188 101.789062 122.242188 C 102.570312 122.257812 103.355469 122.273438 104.140625 122.289062 C 104.53125 122.304688 104.921875 122.292969 105.316406 122.328125 L 106.488281 122.410156 L 107.667969 122.492188 C 108.058594 122.523438 108.453125 122.539062 108.839844 122.597656 C 109.625 122.691406 110.40625 122.785156 111.1875 122.882812 L 111.773438 122.953125 L 113.523438 123.253906 C 115.085938 123.492188 116.617188 123.878906 118.164062 124.21875 C 118.925781 124.414062 119.6875 124.636719 120.453125 124.84375 C 120.832031 124.953125 121.214844 125.050781 121.59375 125.167969 L 122.71875 125.539062 L 123.847656 125.914062 C 124.222656 126.039062 124.601562 126.160156 124.96875 126.308594 L 127.183594 127.164062 C 127.558594 127.300781 127.917969 127.464844 128.28125 127.625 L 129.367188 128.105469 L 130.453125 128.589844 C 130.8125 128.753906 131.160156 128.941406 131.515625 129.113281 C 142.921875 134.679688 152.574219 143.609375 159.101562 154.222656 C 159.496094 154.894531 159.890625 155.5625 160.285156 156.234375 L 160.582031 156.734375 L 160.851562 157.25 L 161.394531 158.28125 C 162.144531 159.640625 162.757812 161.0625 163.417969 162.460938 C 163.710938 163.175781 164.003906 163.886719 164.296875 164.601562 C 164.4375 164.957031 164.59375 165.3125 164.722656 165.671875 L 165.488281 167.847656 C 165.613281 168.210938 165.75 168.566406 165.851562 168.9375 C 166.070312 169.671875 166.289062 170.402344 166.507812 171.136719 C 167.308594 174.082031 167.972656 177.050781 168.347656 180.042969 C 168.585938 181.511719 168.6875 183.078125 168.816406 184.601562 C 168.855469 184.996094 168.859375 185.339844 168.871094 185.691406 L 168.910156 186.746094 L 168.945312 187.800781 L 168.953125 188.0625 L 168.957031 188.195312 C 168.960938 188.21875 168.964844 188.464844 168.960938 188.425781 L 168.957031 188.980469 C 168.957031 191.941406 168.765625 194.878906 168.386719 197.769531 C 168.003906 200.65625 167.433594 203.488281 166.695312 206.246094 C 165.214844 211.761719 163.054688 216.957031 160.390625 221.691406 C 157.738281 226.4375 154.535156 230.691406 151.050781 234.425781 C 150.605469 234.886719 150.179688 235.359375 149.730469 235.804688 C 149.277344 236.25 148.828125 236.691406 148.382812 237.132812 C 147.921875 237.558594 147.460938 237.984375 147.003906 238.40625 C 146.550781 238.828125 146.070312 239.222656 145.609375 239.628906 C 143.730469 241.226562 141.808594 242.703125 139.855469 244.039062 C 138.863281 244.695312 137.902344 245.34375 136.867188 245.957031 C 136.613281 246.113281 136.359375 246.265625 136.109375 246.421875 C 135.851562 246.578125 135.628906 246.695312 135.386719 246.835938 C 135.148438 246.96875 134.914062 247.101562 134.679688 247.234375 L 134.324219 247.433594 L 134.148438 247.535156 C 134.132812 247.542969 133.992188 247.621094 134 247.613281 L 133.894531 247.667969 C 131.664062 248.847656 129.269531 249.660156 126.867188 250.042969 C 124.457031 250.40625 122.058594 250.371094 119.796875 249.988281 C 117.539062 249.589844 115.414062 248.863281 113.5 247.898438 C 109.664062 245.960938 106.691406 243.058594 104.722656 239.914062 C 103.734375 238.339844 102.996094 236.703125 102.472656 235.085938 C 102.355469 234.679688 102.214844 234.28125 102.121094 233.878906 C 102.027344 233.476562 101.9375 233.078125 101.84375 232.683594 C 101.78125 232.285156 101.71875 231.890625 101.652344 231.503906 L 101.609375 231.214844 L 101.578125 230.902344 C 101.558594 230.695312 101.539062 230.492188 101.519531 230.289062 C 101.503906 230.085938 101.488281 229.882812 101.46875 229.683594 C 101.457031 229.492188 101.460938 229.351562 101.453125 229.1875 C 101.445312 228.835938 101.4375 228.484375 101.433594 228.140625 C 101.4375 227.523438 101.445312 226.921875 101.449219 226.339844 C 101.460938 225.175781 101.472656 224.082031 101.484375 223.066406 C 101.503906 221.035156 101.523438 219.308594 101.539062 217.90625 C 101.574219 215.105469 101.589844 213.609375 101.589844 213.609375 L 107.625 213.609375 " fill-opacity="1" fill-rule="nonzero"/><path fill="#8dc740" d="M 88.140625 261.453125 C 41.046875 261.492188 45.644531 219.085938 45.644531 219.085938 C 45.644531 219.085938 46.226562 219.023438 47.25 218.988281 C 47.253906 218.996094 47.257812 219.007812 47.261719 219.015625 C 48.011719 220.609375 48.835938 222.097656 49.632812 223.515625 C 50.472656 224.910156 51.300781 226.230469 52.152344 227.449219 C 52.578125 228.0625 53 228.652344 53.429688 229.214844 C 53.644531 229.496094 53.851562 229.777344 54.058594 230.050781 C 54.277344 230.320312 54.488281 230.585938 54.699219 230.847656 C 56.382812 232.9375 58.023438 234.675781 59.503906 236.125 C 60.996094 237.5625 62.339844 238.699219 63.445312 239.589844 C 64.5625 240.46875 65.4375 241.113281 66.039062 241.53125 C 66.640625 241.945312 66.953125 242.160156 66.953125 242.160156 L 67.097656 241.984375 C 67.097656 241.984375 66.84375 241.710938 66.34375 241.179688 C 65.839844 240.660156 65.117188 239.863281 64.199219 238.808594 C 63.746094 238.277344 63.230469 237.695312 62.699219 237.023438 C 62.429688 236.6875 62.136719 236.351562 61.855469 235.980469 C 61.574219 235.613281 61.277344 235.230469 60.972656 234.832031 C 59.765625 233.226562 58.441406 231.34375 57.101562 229.15625 C 56.933594 228.882812 56.761719 228.609375 56.589844 228.328125 C 56.425781 228.042969 56.257812 227.757812 56.089844 227.464844 C 55.746094 226.886719 55.425781 226.277344 55.089844 225.65625 C 54.742188 225.042969 54.433594 224.390625 54.09375 223.742188 C 53.765625 223.085938 53.457031 222.398438 53.128906 221.710938 C 52.75 220.855469 52.363281 219.984375 52 219.082031 C 63.859375 219.914062 88.171875 225.949219 88.140625 261.453125 " fill-opacity="1" fill-rule="nonzero"/><path fill="#8dc740" d="M 79.765625 212.402344 C 70.453125 181.753906 43.605469 193.15625 43.605469 193.15625 C 43.605469 193.15625 49.039062 221.738281 79.765625 212.402344 " fill-opacity="1" fill-rule="nonzero"/><path fill="#8dc740" d="M 8.429688 232.425781 C 42.910156 224.082031 31.953125 193.859375 31.953125 193.859375 C 31.953125 193.859375 -0.00390625 198.066406 8.429688 232.425781 " fill-opacity="1" fill-rule="nonzero"/><g clip-path="url(#842d267207)"><path fill="#929497" d="M 181.75 199.480469 C 181.640625 199.480469 181.527344 199.476562 181.417969 199.460938 C 179.761719 199.285156 178.566406 197.800781 178.746094 196.148438 C 179.042969 193.414062 179.195312 190.628906 179.195312 187.863281 C 179.195312 161.859375 166.058594 137.953125 144.0625 123.914062 C 142.660156 123.019531 142.25 121.160156 143.148438 119.757812 C 144.046875 118.359375 145.914062 117.949219 147.316406 118.847656 C 158.710938 126.117188 168.222656 136.179688 174.820312 147.9375 C 181.628906 160.070312 185.226562 173.878906 185.226562 187.863281 C 185.226562 190.84375 185.066406 193.851562 184.746094 196.796875 C 184.578125 198.335938 183.269531 199.480469 181.75 199.480469 " fill-opacity="1" fill-rule="nonzero"/></g><g clip-path="url(#398b432367)"><path fill="#929497" d="M 115.878906 268.726562 C 114.425781 268.726562 113.144531 267.679688 112.90625 266.203125 C 112.636719 264.5625 113.753906 263.015625 115.398438 262.75 C 146.109375 257.769531 171.082031 234.03125 177.539062 203.679688 C 177.882812 202.054688 179.484375 201.015625 181.113281 201.363281 C 182.746094 201.707031 183.785156 203.304688 183.441406 204.929688 C 180.011719 221.050781 171.847656 235.625 159.828125 247.074219 C 147.773438 258.558594 132.746094 266.035156 116.367188 268.6875 C 116.203125 268.714844 116.039062 268.726562 115.878906 268.726562 " fill-opacity="1" fill-rule="nonzero"/></g><g clip-path="url(#3d9205eae7)"><path fill="#929497" d="M 26.738281 170.089844 C 26.476562 170.089844 26.207031 170.058594 25.941406 169.984375 C 24.335938 169.550781 23.386719 167.894531 23.824219 166.292969 C 28.46875 149.289062 38.761719 133.949219 52.8125 123.097656 C 67.3125 111.894531 84.695312 105.972656 103.085938 105.972656 C 115.617188 105.972656 127.652344 108.714844 138.847656 114.121094 C 140.347656 114.847656 140.976562 116.644531 140.25 118.140625 C 139.523438 119.636719 137.71875 120.261719 136.21875 119.535156 C 125.847656 114.527344 114.699219 111.988281 103.085938 111.988281 C 68.835938 111.988281 38.636719 134.96875 29.648438 167.875 C 29.28125 169.210938 28.066406 170.089844 26.738281 170.089844 " fill-opacity="1" fill-rule="nonzero"/></g></svg>