<svg xmlns="http://www.w3.org/2000/svg" xmlns:xlink="http://www.w3.org/1999/xlink" width="500" zoomAndPan="magnify" viewBox="0 0 375 374.999991" height="500" preserveAspectRatio="xMidYMid meet" version="1.0"><defs><g/><clipPath id="53c18934c8"><path d="M 76.128906 160 L 90.953125 160 L 90.953125 188.089844 L 76.128906 188.089844 Z M 76.128906 160 " clip-rule="nonzero"/></clipPath><clipPath id="62a4624a02"><path d="M 65.714844 188.628906 L 90.382812 188.628906 L 90.382812 211.972656 L 65.714844 211.972656 Z M 65.714844 188.628906 " clip-rule="nonzero"/></clipPath><clipPath id="c69adb11f5"><path d="M 34 155.722656 L 76 155.722656 L 76 178 L 34 178 Z M 34 155.722656 " clip-rule="nonzero"/></clipPath></defs><g fill="#8cc63f" fill-opacity="1"><g transform="translate(100.433068, 199.104412)"><g><path d="M 24.359375 -5.203125 L 24.359375 0 L 3.171875 0 L 3.171875 -30.5 L 23.96875 -30.5 L 23.96875 -25.296875 L 9.109375 -25.296875 L 9.109375 -17.953125 L 21.953125 -17.953125 L 21.953125 -13.140625 L 9.109375 -13.140625 L 9.109375 -5.203125 Z M 24.359375 -5.203125 "/></g></g></g><g fill="#8cc63f" fill-opacity="1"><g transform="translate(126.242898, 199.104412)"><g><path d="M 1.328125 -15.46875 C 1.328125 -17.320312 1.660156 -19.15625 2.328125 -20.96875 C 3.003906 -22.789062 3.988281 -24.414062 5.28125 -25.84375 C 6.570312 -27.28125 8.144531 -28.441406 10 -29.328125 C 11.863281 -30.222656 13.984375 -30.671875 16.359375 -30.671875 C 19.171875 -30.671875 21.597656 -30.050781 23.640625 -28.8125 C 25.691406 -27.582031 27.21875 -25.984375 28.21875 -24.015625 L 23.671875 -20.875 C 23.265625 -21.726562 22.773438 -22.445312 22.203125 -23.03125 C 21.628906 -23.625 21.015625 -24.09375 20.359375 -24.4375 C 19.703125 -24.78125 19.015625 -25.03125 18.296875 -25.1875 C 17.578125 -25.34375 16.875 -25.421875 16.1875 -25.421875 C 14.695312 -25.421875 13.398438 -25.117188 12.296875 -24.515625 C 11.203125 -23.921875 10.289062 -23.144531 9.5625 -22.1875 C 8.832031 -21.226562 8.28125 -20.140625 7.90625 -18.921875 C 7.53125 -17.703125 7.34375 -16.492188 7.34375 -15.296875 C 7.34375 -13.941406 7.554688 -12.640625 7.984375 -11.390625 C 8.421875 -10.148438 9.03125 -9.054688 9.8125 -8.109375 C 10.601562 -7.171875 11.546875 -6.414062 12.640625 -5.84375 C 13.742188 -5.269531 14.957031 -4.984375 16.28125 -4.984375 C 16.96875 -4.984375 17.679688 -5.066406 18.421875 -5.234375 C 19.171875 -5.410156 19.878906 -5.679688 20.546875 -6.046875 C 21.222656 -6.421875 21.847656 -6.898438 22.421875 -7.484375 C 22.992188 -8.078125 23.453125 -8.789062 23.796875 -9.625 L 28.65625 -6.828125 C 28.164062 -5.679688 27.46875 -4.671875 26.5625 -3.796875 C 25.664062 -2.921875 24.648438 -2.179688 23.515625 -1.578125 C 22.378906 -0.984375 21.164062 -0.53125 19.875 -0.21875 C 18.59375 0.09375 17.335938 0.25 16.109375 0.25 C 13.929688 0.25 11.941406 -0.203125 10.140625 -1.109375 C 8.335938 -2.023438 6.78125 -3.222656 5.46875 -4.703125 C 4.164062 -6.179688 3.148438 -7.859375 2.421875 -9.734375 C 1.691406 -11.609375 1.328125 -13.519531 1.328125 -15.46875 Z M 1.328125 -15.46875 "/></g></g></g><g fill="#8cc63f" fill-opacity="1"><g transform="translate(155.703028, 199.104412)"><g><path d="M 28.828125 -30.5 L 28.828125 0 L 22.9375 0 L 22.9375 -13.015625 L 9.109375 -13.015625 L 9.109375 0 L 3.171875 0 L 3.171875 -30.5 L 9.109375 -30.5 L 9.109375 -18.171875 L 22.9375 -18.171875 L 22.9375 -30.5 Z M 28.828125 -30.5 "/></g></g></g><g fill="#8cc63f" fill-opacity="1"><g transform="translate(187.696902, 199.104412)"><g><path d="M 16.1875 0.21875 C 13.957031 0.21875 11.929688 -0.21875 10.109375 -1.09375 C 8.296875 -1.96875 6.738281 -3.128906 5.4375 -4.578125 C 4.132812 -6.023438 3.125 -7.675781 2.40625 -9.53125 C 1.6875 -11.394531 1.328125 -13.300781 1.328125 -15.25 C 1.328125 -17.28125 1.707031 -19.222656 2.46875 -21.078125 C 3.226562 -22.941406 4.273438 -24.585938 5.609375 -26.015625 C 6.941406 -27.453125 8.519531 -28.59375 10.34375 -29.4375 C 12.175781 -30.289062 14.171875 -30.71875 16.328125 -30.71875 C 18.523438 -30.71875 20.53125 -30.265625 22.34375 -29.359375 C 24.164062 -28.453125 25.722656 -27.269531 27.015625 -25.8125 C 28.304688 -24.351562 29.304688 -22.691406 30.015625 -20.828125 C 30.734375 -18.972656 31.09375 -17.082031 31.09375 -15.15625 C 31.09375 -13.125 30.71875 -11.1875 29.96875 -9.34375 C 29.226562 -7.5 28.195312 -5.863281 26.875 -4.4375 C 25.5625 -3.019531 23.988281 -1.890625 22.15625 -1.046875 C 20.332031 -0.203125 18.34375 0.21875 16.1875 0.21875 Z M 7.34375 -15.25 C 7.34375 -13.925781 7.539062 -12.648438 7.9375 -11.421875 C 8.34375 -10.191406 8.925781 -9.101562 9.6875 -8.15625 C 10.445312 -7.21875 11.375 -6.460938 12.46875 -5.890625 C 13.570312 -5.316406 14.828125 -5.03125 16.234375 -5.03125 C 17.671875 -5.03125 18.9375 -5.320312 20.03125 -5.90625 C 21.132812 -6.488281 22.066406 -7.265625 22.828125 -8.234375 C 23.585938 -9.210938 24.160156 -10.3125 24.546875 -11.53125 C 24.929688 -12.75 25.125 -13.988281 25.125 -15.25 C 25.125 -16.5625 24.914062 -17.832031 24.5 -19.0625 C 24.082031 -20.300781 23.492188 -21.390625 22.734375 -22.328125 C 21.984375 -23.273438 21.054688 -24.023438 19.953125 -24.578125 C 18.847656 -25.140625 17.609375 -25.421875 16.234375 -25.421875 C 14.804688 -25.421875 13.53125 -25.128906 12.40625 -24.546875 C 11.289062 -23.960938 10.359375 -23.191406 9.609375 -22.234375 C 8.867188 -21.273438 8.304688 -20.1875 7.921875 -18.96875 C 7.535156 -17.75 7.34375 -16.507812 7.34375 -15.25 Z M 7.34375 -15.25 "/></g></g></g><g fill="#929497" fill-opacity="1"><g transform="translate(224.434795, 198.269637)"><g><path d="M 3.65625 0 L 3.65625 -29.109375 L 6.515625 -29.109375 L 6.515625 -2.546875 L 23.328125 -2.546875 L 23.328125 0 Z M 3.65625 0 "/></g></g></g><g fill="#929497" fill-opacity="1"><g transform="translate(248.33325, 198.269637)"><g><path d="M 15.375 0.203125 C 13.351562 0.203125 11.5 -0.210938 9.8125 -1.046875 C 8.132812 -1.878906 6.691406 -2.984375 5.484375 -4.359375 C 4.285156 -5.742188 3.359375 -7.320312 2.703125 -9.09375 C 2.046875 -10.875 1.71875 -12.695312 1.71875 -14.5625 C 1.71875 -16.5 2.066406 -18.351562 2.765625 -20.125 C 3.460938 -21.90625 4.425781 -23.476562 5.65625 -24.84375 C 6.882812 -26.207031 8.332031 -27.289062 10 -28.09375 C 11.664062 -28.90625 13.472656 -29.3125 15.421875 -29.3125 C 17.441406 -29.3125 19.289062 -28.878906 20.96875 -28.015625 C 22.65625 -27.160156 24.09375 -26.035156 25.28125 -24.640625 C 26.46875 -23.242188 27.390625 -21.664062 28.046875 -19.90625 C 28.703125 -18.144531 29.03125 -16.347656 29.03125 -14.515625 C 29.03125 -12.578125 28.679688 -10.71875 27.984375 -8.9375 C 27.285156 -7.15625 26.328125 -5.585938 25.109375 -4.234375 C 23.890625 -2.890625 22.445312 -1.8125 20.78125 -1 C 19.113281 -0.195312 17.3125 0.203125 15.375 0.203125 Z M 4.59375 -14.5625 C 4.59375 -12.96875 4.851562 -11.441406 5.375 -9.984375 C 5.894531 -8.523438 6.628906 -7.226562 7.578125 -6.09375 C 8.535156 -4.957031 9.671875 -4.050781 10.984375 -3.375 C 12.296875 -2.707031 13.757812 -2.375 15.375 -2.375 C 17.007812 -2.375 18.5 -2.726562 19.84375 -3.4375 C 21.1875 -4.15625 22.320312 -5.085938 23.25 -6.234375 C 24.175781 -7.378906 24.890625 -8.675781 25.390625 -10.125 C 25.898438 -11.570312 26.15625 -13.050781 26.15625 -14.5625 C 26.15625 -16.144531 25.890625 -17.664062 25.359375 -19.125 C 24.828125 -20.582031 24.082031 -21.875 23.125 -23 C 22.164062 -24.125 21.03125 -25.019531 19.71875 -25.6875 C 18.40625 -26.351562 16.957031 -26.6875 15.375 -26.6875 C 13.738281 -26.6875 12.25 -26.335938 10.90625 -25.640625 C 9.5625 -24.941406 8.425781 -24.019531 7.5 -22.875 C 6.570312 -21.726562 5.851562 -20.429688 5.34375 -18.984375 C 4.84375 -17.535156 4.59375 -16.0625 4.59375 -14.5625 Z M 4.59375 -14.5625 "/></g></g></g><g fill="#929497" fill-opacity="1"><g transform="translate(279.118393, 198.269637)"><g><path d="M 24.6875 -4.265625 C 21.976562 -1.285156 18.859375 0.203125 15.328125 0.203125 C 13.359375 0.203125 11.546875 -0.21875 9.890625 -1.0625 C 8.242188 -1.914062 6.8125 -3.035156 5.59375 -4.421875 C 4.375 -5.816406 3.421875 -7.394531 2.734375 -9.15625 C 2.054688 -10.925781 1.71875 -12.738281 1.71875 -14.59375 C 1.71875 -16.53125 2.050781 -18.390625 2.71875 -20.171875 C 3.394531 -21.953125 4.332031 -23.515625 5.53125 -24.859375 C 6.738281 -26.210938 8.160156 -27.289062 9.796875 -28.09375 C 11.441406 -28.90625 13.234375 -29.3125 15.171875 -29.3125 C 16.585938 -29.3125 17.882812 -29.15625 19.0625 -28.84375 C 20.238281 -28.53125 21.285156 -28.09375 22.203125 -27.53125 C 23.117188 -26.96875 23.910156 -26.296875 24.578125 -25.515625 C 25.242188 -24.742188 25.8125 -23.890625 26.28125 -22.953125 L 24.0625 -21.484375 C 23.101562 -23.285156 21.859375 -24.609375 20.328125 -25.453125 C 18.804688 -26.304688 17.070312 -26.734375 15.125 -26.734375 C 13.507812 -26.734375 12.050781 -26.390625 10.75 -25.703125 C 9.457031 -25.023438 8.351562 -24.117188 7.4375 -22.984375 C 6.519531 -21.847656 5.816406 -20.546875 5.328125 -19.078125 C 4.835938 -17.617188 4.59375 -16.113281 4.59375 -14.5625 C 4.59375 -12.914062 4.867188 -11.351562 5.421875 -9.875 C 5.984375 -8.40625 6.753906 -7.113281 7.734375 -6 C 8.722656 -4.894531 9.878906 -4.015625 11.203125 -3.359375 C 12.535156 -2.703125 13.976562 -2.375 15.53125 -2.375 C 17.207031 -2.375 18.800781 -2.765625 20.3125 -3.546875 C 21.832031 -4.328125 23.289062 -5.5625 24.6875 -7.25 L 24.6875 -12.09375 L 18.203125 -12.09375 L 18.203125 -14.3125 L 27.09375 -14.3125 L 27.09375 0 L 24.6875 0 Z M 24.6875 -4.265625 "/></g></g></g><g fill="#929497" fill-opacity="1"><g transform="translate(308.468802, 198.269637)"><g><path d="M 3.65625 0 L 3.65625 -29.109375 L 6.515625 -29.109375 L 6.515625 0 Z M 3.65625 0 "/></g></g></g><g fill="#929497" fill-opacity="1"><g transform="translate(318.634862, 198.269637)"><g><path d="M 1.71875 -14.765625 C 1.71875 -16.515625 2.023438 -18.253906 2.640625 -19.984375 C 3.253906 -21.722656 4.148438 -23.273438 5.328125 -24.640625 C 6.503906 -26.003906 7.953125 -27.117188 9.671875 -27.984375 C 11.398438 -28.847656 13.351562 -29.28125 15.53125 -29.28125 C 18.132812 -29.28125 20.359375 -28.691406 22.203125 -27.515625 C 24.046875 -26.335938 25.40625 -24.804688 26.28125 -22.921875 L 24.03125 -21.53125 C 23.5625 -22.476562 22.988281 -23.28125 22.3125 -23.9375 C 21.644531 -24.59375 20.929688 -25.125 20.171875 -25.53125 C 19.410156 -25.945312 18.617188 -26.242188 17.796875 -26.421875 C 16.972656 -26.597656 16.164062 -26.6875 15.375 -26.6875 C 13.625 -26.6875 12.078125 -26.332031 10.734375 -25.625 C 9.398438 -24.914062 8.273438 -23.984375 7.359375 -22.828125 C 6.441406 -21.679688 5.75 -20.390625 5.28125 -18.953125 C 4.820312 -17.523438 4.59375 -16.070312 4.59375 -14.59375 C 4.59375 -12.976562 4.867188 -11.429688 5.421875 -9.953125 C 5.984375 -8.484375 6.75 -7.179688 7.71875 -6.046875 C 8.695312 -4.910156 9.847656 -4.007812 11.171875 -3.34375 C 12.492188 -2.675781 13.9375 -2.34375 15.5 -2.34375 C 16.320312 -2.34375 17.160156 -2.441406 18.015625 -2.640625 C 18.878906 -2.847656 19.710938 -3.175781 20.515625 -3.625 C 21.328125 -4.082031 22.070312 -4.644531 22.75 -5.3125 C 23.4375 -5.976562 24.015625 -6.789062 24.484375 -7.75 L 26.859375 -6.515625 C 26.390625 -5.421875 25.726562 -4.457031 24.875 -3.625 C 24.03125 -2.789062 23.085938 -2.085938 22.046875 -1.515625 C 21.015625 -0.941406 19.914062 -0.503906 18.75 -0.203125 C 17.59375 0.0976562 16.453125 0.25 15.328125 0.25 C 13.335938 0.25 11.507812 -0.1875 9.84375 -1.0625 C 8.175781 -1.9375 6.738281 -3.078125 5.53125 -4.484375 C 4.332031 -5.890625 3.394531 -7.488281 2.71875 -9.28125 C 2.050781 -11.070312 1.71875 -12.898438 1.71875 -14.765625 Z M 1.71875 -14.765625 "/></g></g></g><path fill="#8dc740" d="M 68.609375 180.324219 L 66.90625 180.324219 L 66.90625 175.042969 C 66.90625 174.5 66.476562 174.035156 65.929688 174.027344 C 65.371094 174.015625 64.914062 174.460938 64.914062 175.011719 L 64.914062 180.324219 L 60.84375 180.324219 L 60.84375 175.042969 C 60.84375 174.5 60.417969 174.035156 59.867188 174.027344 C 59.308594 174.015625 58.855469 174.460938 58.855469 175.011719 L 58.855469 180.324219 L 57.152344 180.324219 C 56.320312 180.324219 55.652344 180.988281 55.652344 181.808594 L 55.652344 182.035156 C 55.652344 182.855469 56.320312 183.519531 57.152344 183.519531 L 57.152344 187.074219 C 57.152344 188.441406 57.691406 189.75 58.65625 190.722656 L 60.960938 193.042969 L 60.960938 194.292969 C 60.960938 194.589844 61.203125 194.828125 61.503906 194.828125 L 64.257812 194.828125 C 64.554688 194.828125 64.800781 194.589844 64.800781 194.292969 L 64.800781 193.042969 L 67.101562 190.722656 C 68.066406 189.75 68.609375 188.441406 68.609375 187.074219 L 68.609375 183.519531 C 69.4375 183.519531 70.109375 182.855469 70.109375 182.035156 L 70.109375 181.808594 C 70.109375 180.988281 69.4375 180.324219 68.609375 180.324219 " fill-opacity="1" fill-rule="nonzero"/><path fill="#8dc740" d="M 63.929688 192.925781 C 63.929688 192.925781 63.9375 193.441406 63.949219 194.410156 C 63.953125 194.894531 63.960938 195.492188 63.96875 196.191406 C 63.972656 196.542969 63.976562 196.921875 63.980469 197.324219 C 63.980469 197.523438 63.984375 197.734375 63.984375 197.945312 C 63.988281 198.042969 63.996094 198.136719 64 198.234375 C 64 198.289062 64.003906 198.347656 64.007812 198.394531 C 64.011719 198.4375 64.019531 198.480469 64.023438 198.519531 C 64.027344 198.5625 64.035156 198.605469 64.039062 198.648438 L 64.046875 198.710938 L 64.058594 198.78125 C 64.078125 198.878906 64.09375 198.972656 64.113281 199.070312 C 64.136719 199.164062 64.160156 199.261719 64.1875 199.359375 C 64.210938 199.457031 64.25 199.550781 64.277344 199.652344 C 64.414062 200.039062 64.597656 200.429688 64.84375 200.808594 C 65.332031 201.558594 66.074219 202.253906 67.019531 202.710938 C 67.492188 202.9375 68.007812 203.101562 68.554688 203.191406 C 69.101562 203.273438 69.671875 203.269531 70.246094 203.179688 C 70.816406 203.082031 71.386719 202.882812 71.929688 202.59375 L 71.953125 202.582031 C 71.980469 202.566406 71.949219 202.582031 71.964844 202.574219 L 72.148438 202.46875 C 72.230469 202.421875 72.3125 202.375 72.394531 202.328125 C 72.472656 202.28125 72.5625 202.234375 72.632812 202.1875 C 72.707031 202.144531 72.78125 202.097656 72.855469 202.050781 C 73.152344 201.871094 73.460938 201.664062 73.765625 201.457031 C 74.371094 201.039062 74.964844 200.574219 75.546875 200.074219 C 75.6875 199.949219 75.835938 199.824219 75.976562 199.691406 C 76.117188 199.5625 76.261719 199.429688 76.402344 199.296875 C 76.539062 199.15625 76.679688 199.019531 76.816406 198.878906 C 76.957031 198.742188 77.089844 198.59375 77.226562 198.449219 C 77.761719 197.867188 78.273438 197.246094 78.757812 196.585938 C 79.238281 195.929688 79.691406 195.230469 80.101562 194.5 C 80.921875 193.035156 81.582031 191.433594 82.035156 189.734375 C 82.257812 188.886719 82.433594 188.011719 82.546875 187.125 C 82.660156 186.234375 82.714844 185.328125 82.710938 184.417969 L 82.714844 184.246094 C 82.710938 184.203125 82.714844 184.257812 82.714844 184.234375 L 82.710938 184.1875 L 82.707031 184.097656 L 82.695312 183.734375 L 82.679688 183.367188 C 82.675781 183.246094 82.671875 183.121094 82.660156 183.015625 C 82.613281 182.570312 82.589844 182.132812 82.515625 181.667969 C 82.398438 180.75 82.195312 179.835938 81.949219 178.933594 C 81.878906 178.707031 81.8125 178.480469 81.746094 178.257812 C 81.714844 178.140625 81.671875 178.03125 81.632812 177.921875 L 81.515625 177.585938 L 81.398438 177.253906 C 81.359375 177.140625 81.308594 177.035156 81.265625 176.925781 C 81.175781 176.703125 81.085938 176.484375 80.996094 176.265625 C 80.789062 175.835938 80.601562 175.398438 80.367188 174.980469 L 80.203125 174.664062 L 80.117188 174.503906 L 80.027344 174.351562 C 79.90625 174.144531 79.78125 173.9375 79.660156 173.730469 C 79.535156 173.527344 79.398438 173.328125 79.265625 173.125 L 79.066406 172.824219 L 78.855469 172.53125 C 78.710938 172.339844 78.574219 172.140625 78.425781 171.949219 L 77.96875 171.386719 L 77.855469 171.242188 L 77.734375 171.109375 L 77.25 170.5625 C 77.171875 170.472656 77.082031 170.386719 77 170.300781 L 76.488281 169.777344 L 75.953125 169.28125 C 75.777344 169.109375 75.585938 168.957031 75.402344 168.796875 C 75.214844 168.640625 75.03125 168.476562 74.835938 168.332031 L 74.253906 167.886719 L 73.652344 167.464844 C 72.839844 166.917969 72 166.402344 71.117188 165.976562 C 71.007812 165.921875 70.898438 165.863281 70.789062 165.8125 L 70.453125 165.660156 L 70.117188 165.511719 C 70.003906 165.460938 69.890625 165.410156 69.777344 165.367188 L 69.089844 165.097656 C 68.976562 165.050781 68.859375 165.015625 68.746094 164.976562 L 68.394531 164.859375 L 68.046875 164.742188 C 67.929688 164.703125 67.808594 164.671875 67.691406 164.640625 C 67.457031 164.574219 67.21875 164.503906 66.984375 164.441406 C 66.503906 164.335938 66.03125 164.210938 65.542969 164.136719 L 65.183594 164.070312 L 65.003906 164.039062 L 64.820312 164.015625 L 64.089844 163.921875 C 63.96875 163.902344 63.847656 163.898438 63.726562 163.886719 L 62.996094 163.832031 C 62.875 163.820312 62.75 163.824219 62.628906 163.820312 C 62.382812 163.8125 62.140625 163.804688 61.898438 163.800781 C 61.894531 163.796875 61.835938 163.796875 61.882812 163.796875 L 61.832031 163.796875 L 61.738281 163.800781 L 61.15625 163.8125 L 60.769531 163.824219 L 60.414062 163.847656 C 60.179688 163.867188 59.945312 163.882812 59.710938 163.902344 C 55.84375 164.285156 52.179688 165.765625 49.21875 167.972656 C 49.035156 168.113281 48.855469 168.253906 48.671875 168.390625 C 48.578125 168.460938 48.492188 168.535156 48.40625 168.609375 L 48.144531 168.832031 C 47.789062 169.121094 47.464844 169.441406 47.128906 169.75 C 46.96875 169.90625 46.8125 170.074219 46.65625 170.234375 L 46.417969 170.472656 C 46.339844 170.554688 46.269531 170.640625 46.195312 170.726562 C 46.046875 170.894531 45.898438 171.058594 45.75 171.226562 C 45.605469 171.398438 45.46875 171.574219 45.328125 171.746094 C 44.21875 173.128906 43.328125 174.636719 42.632812 176.171875 C 42.539062 176.363281 42.464844 176.558594 42.386719 176.753906 C 42.304688 176.949219 42.226562 177.140625 42.148438 177.335938 C 42.082031 177.53125 42.011719 177.726562 41.945312 177.921875 C 41.910156 178.019531 41.875 178.117188 41.84375 178.214844 C 41.808594 178.3125 41.785156 178.410156 41.753906 178.507812 C 41.695312 178.707031 41.636719 178.902344 41.578125 179.097656 L 41.535156 179.242188 L 41.5 179.390625 C 41.476562 179.488281 41.453125 179.585938 41.429688 179.6875 C 41.382812 179.882812 41.335938 180.078125 41.289062 180.273438 C 41.253906 180.46875 41.214844 180.664062 41.179688 180.859375 C 41.097656 181.25 41.050781 181.640625 41 182.027344 C 40.984375 182.125 40.972656 182.222656 40.957031 182.316406 C 40.949219 182.414062 40.941406 182.511719 40.933594 182.609375 C 40.917969 182.800781 40.902344 182.992188 40.886719 183.183594 C 40.863281 183.375 40.863281 183.566406 40.855469 183.757812 C 40.851562 183.945312 40.84375 184.136719 40.839844 184.324219 L 40.835938 184.449219 L 40.835938 184.597656 C 40.835938 184.695312 40.835938 184.792969 40.835938 184.890625 C 40.835938 184.988281 40.835938 185.089844 40.839844 185.183594 C 40.84375 185.273438 40.847656 185.363281 40.847656 185.453125 C 40.859375 185.808594 40.886719 186.179688 40.914062 186.539062 C 40.933594 186.71875 40.949219 186.898438 40.96875 187.074219 C 40.984375 187.253906 41.011719 187.429688 41.03125 187.605469 C 41.128906 188.308594 41.253906 188.988281 41.40625 189.644531 C 41.710938 190.960938 42.121094 192.1875 42.59375 193.304688 C 42.652344 193.445312 42.714844 193.582031 42.773438 193.71875 C 42.835938 193.855469 42.894531 193.992188 42.957031 194.125 C 43.085938 194.386719 43.210938 194.648438 43.347656 194.902344 C 43.601562 195.410156 43.882812 195.882812 44.152344 196.339844 C 44.296875 196.5625 44.429688 196.785156 44.570312 196.996094 C 44.714844 197.207031 44.847656 197.417969 44.996094 197.613281 C 45.136719 197.8125 45.273438 198.011719 45.414062 198.195312 C 45.484375 198.289062 45.554688 198.378906 45.625 198.46875 C 45.695312 198.558594 45.765625 198.648438 45.832031 198.734375 C 46.386719 199.429688 46.921875 200.023438 47.40625 200.523438 C 47.527344 200.648438 47.644531 200.769531 47.757812 200.882812 C 47.871094 201 47.988281 201.101562 48.09375 201.207031 C 48.304688 201.414062 48.507812 201.59375 48.6875 201.757812 C 49.046875 202.082031 49.328125 202.328125 49.527344 202.484375 C 49.71875 202.648438 49.820312 202.730469 49.820312 202.730469 L 49.773438 202.796875 C 49.773438 202.796875 49.660156 202.734375 49.433594 202.617188 C 49.207031 202.5 48.878906 202.3125 48.457031 202.058594 C 48.039062 201.796875 47.527344 201.460938 46.953125 201.027344 C 46.378906 200.589844 45.742188 200.058594 45.074219 199.414062 C 44.988281 199.332031 44.90625 199.25 44.820312 199.164062 C 44.734375 199.078125 44.652344 198.992188 44.566406 198.902344 C 44.394531 198.726562 44.226562 198.542969 44.054688 198.347656 C 43.707031 197.964844 43.367188 197.546875 43.019531 197.101562 C 42.683594 196.648438 42.339844 196.167969 42.015625 195.652344 C 41.847656 195.394531 41.695312 195.125 41.53125 194.855469 C 41.453125 194.71875 41.378906 194.574219 41.300781 194.433594 C 41.222656 194.292969 41.144531 194.152344 41.070312 194.003906 C 39.867188 191.675781 38.957031 188.792969 38.773438 185.53125 C 38.585938 182.320312 39.109375 178.726562 40.59375 175.296875 C 40.6875 175.082031 40.78125 174.867188 40.878906 174.652344 L 40.953125 174.492188 L 41.03125 174.335938 C 41.085938 174.230469 41.140625 174.125 41.191406 174.019531 C 41.246094 173.914062 41.300781 173.808594 41.355469 173.703125 C 41.410156 173.597656 41.460938 173.488281 41.523438 173.386719 C 41.640625 173.179688 41.757812 172.972656 41.878906 172.765625 C 41.992188 172.554688 42.125 172.351562 42.253906 172.148438 C 42.386719 171.945312 42.511719 171.738281 42.648438 171.535156 C 42.789062 171.339844 42.929688 171.140625 43.074219 170.941406 C 43.144531 170.839844 43.210938 170.738281 43.289062 170.644531 L 43.515625 170.351562 C 43.667969 170.160156 43.816406 169.964844 43.976562 169.773438 C 44.136719 169.585938 44.300781 169.398438 44.460938 169.210938 C 44.542969 169.117188 44.621094 169.019531 44.710938 168.929688 L 44.96875 168.65625 C 45.140625 168.476562 45.308594 168.292969 45.488281 168.117188 C 45.855469 167.769531 46.210938 167.410156 46.601562 167.085938 L 46.890625 166.835938 C 46.988281 166.75 47.082031 166.667969 47.183594 166.589844 C 47.386719 166.433594 47.585938 166.273438 47.789062 166.113281 C 48.609375 165.5 49.464844 164.910156 50.378906 164.402344 L 50.71875 164.207031 C 50.832031 164.144531 50.953125 164.085938 51.066406 164.023438 C 51.300781 163.90625 51.535156 163.785156 51.769531 163.664062 C 52.007812 163.554688 52.25 163.445312 52.488281 163.335938 C 52.609375 163.28125 52.730469 163.222656 52.851562 163.175781 L 53.222656 163.03125 C 54.203125 162.625 55.230469 162.3125 56.269531 162.042969 C 56.53125 161.984375 56.792969 161.921875 57.054688 161.863281 C 57.316406 161.804688 57.585938 161.761719 57.847656 161.710938 L 58.246094 161.640625 C 58.382812 161.617188 58.515625 161.601562 58.648438 161.585938 C 58.917969 161.550781 59.1875 161.515625 59.457031 161.480469 C 59.734375 161.457031 60.011719 161.433594 60.289062 161.414062 L 60.703125 161.382812 L 61.476562 161.359375 L 61.671875 161.351562 L 61.765625 161.347656 L 61.816406 161.347656 C 61.894531 161.347656 61.867188 161.347656 61.898438 161.347656 C 62.171875 161.351562 62.441406 161.359375 62.714844 161.363281 C 62.851562 161.367188 62.988281 161.367188 63.125 161.378906 L 63.945312 161.433594 C 64.082031 161.445312 64.21875 161.453125 64.355469 161.46875 C 64.625 161.503906 64.898438 161.535156 65.171875 161.570312 L 65.375 161.59375 L 65.984375 161.699219 C 66.527344 161.78125 67.0625 161.914062 67.597656 162.03125 C 67.867188 162.097656 68.128906 162.175781 68.394531 162.246094 C 68.527344 162.285156 68.664062 162.320312 68.792969 162.359375 L 69.1875 162.488281 L 69.578125 162.617188 C 69.710938 162.660156 69.839844 162.703125 69.96875 162.753906 L 70.742188 163.050781 C 70.871094 163.097656 70.996094 163.152344 71.121094 163.207031 L 71.878906 163.542969 C 72.003906 163.597656 72.125 163.664062 72.25 163.722656 C 76.21875 165.644531 79.582031 168.734375 81.855469 172.402344 C 81.992188 172.632812 82.128906 172.863281 82.265625 173.09375 L 82.371094 173.269531 L 82.464844 173.445312 L 82.652344 173.804688 C 82.914062 174.273438 83.128906 174.765625 83.359375 175.246094 C 83.460938 175.496094 83.5625 175.742188 83.664062 175.988281 C 83.710938 176.109375 83.765625 176.234375 83.8125 176.359375 L 84.078125 177.109375 C 84.121094 177.234375 84.167969 177.359375 84.203125 177.484375 C 84.28125 177.738281 84.355469 177.992188 84.433594 178.246094 C 84.710938 179.265625 84.941406 180.289062 85.074219 181.324219 C 85.15625 181.832031 85.191406 182.371094 85.238281 182.898438 C 85.25 183.035156 85.253906 183.152344 85.257812 183.277344 L 85.28125 184.003906 L 85.285156 184.097656 L 85.285156 184.140625 C 85.289062 184.148438 85.289062 184.234375 85.289062 184.222656 L 85.285156 184.414062 C 85.285156 185.4375 85.21875 186.453125 85.085938 187.449219 C 84.953125 188.449219 84.753906 189.425781 84.5 190.378906 C 83.984375 192.285156 83.230469 194.082031 82.304688 195.71875 C 81.378906 197.359375 80.265625 198.828125 79.050781 200.117188 C 78.898438 200.277344 78.746094 200.441406 78.589844 200.59375 C 78.433594 200.75 78.277344 200.902344 78.121094 201.054688 C 77.960938 201.203125 77.800781 201.347656 77.640625 201.492188 C 77.484375 201.640625 77.316406 201.777344 77.15625 201.917969 C 76.503906 202.46875 75.832031 202.980469 75.152344 203.441406 C 74.808594 203.667969 74.472656 203.890625 74.113281 204.105469 C 74.023438 204.15625 73.9375 204.210938 73.847656 204.265625 C 73.757812 204.316406 73.679688 204.359375 73.597656 204.40625 C 73.515625 204.453125 73.433594 204.5 73.351562 204.546875 L 73.226562 204.613281 L 73.167969 204.648438 C 73.160156 204.652344 73.109375 204.679688 73.113281 204.675781 L 73.078125 204.695312 C 72.300781 205.101562 71.46875 205.382812 70.628906 205.515625 C 69.792969 205.640625 68.957031 205.628906 68.167969 205.496094 C 67.382812 205.359375 66.644531 205.109375 65.976562 204.773438 C 64.640625 204.105469 63.605469 203.101562 62.917969 202.015625 C 62.574219 201.472656 62.316406 200.90625 62.136719 200.347656 C 62.09375 200.207031 62.046875 200.070312 62.015625 199.929688 C 61.980469 199.789062 61.949219 199.652344 61.917969 199.515625 C 61.894531 199.378906 61.871094 199.242188 61.851562 199.109375 L 61.835938 199.007812 L 61.824219 198.902344 C 61.816406 198.828125 61.8125 198.757812 61.804688 198.6875 C 61.796875 198.617188 61.792969 198.546875 61.785156 198.480469 C 61.78125 198.414062 61.785156 198.367188 61.78125 198.308594 C 61.777344 198.1875 61.777344 198.066406 61.773438 197.945312 C 61.777344 197.734375 61.777344 197.523438 61.78125 197.324219 C 61.785156 196.921875 61.789062 196.542969 61.792969 196.191406 C 61.800781 195.492188 61.804688 194.894531 61.808594 194.410156 C 61.824219 193.441406 61.828125 192.925781 61.828125 192.925781 L 63.929688 192.925781 " fill-opacity="1" fill-rule="nonzero"/><path fill="#8dc740" d="M 57.144531 209.457031 C 40.746094 209.472656 42.347656 194.816406 42.347656 194.816406 C 42.347656 194.816406 42.550781 194.796875 42.90625 194.785156 C 42.910156 194.785156 42.910156 194.789062 42.910156 194.792969 C 43.171875 195.34375 43.457031 195.859375 43.738281 196.347656 C 44.027344 196.828125 44.316406 197.285156 44.613281 197.707031 C 44.761719 197.917969 44.910156 198.125 45.058594 198.316406 C 45.132812 198.414062 45.207031 198.511719 45.277344 198.605469 C 45.355469 198.699219 45.429688 198.792969 45.5 198.882812 C 46.085938 199.605469 46.660156 200.207031 47.175781 200.707031 C 47.695312 201.203125 48.160156 201.597656 48.546875 201.902344 C 48.9375 202.207031 49.242188 202.429688 49.449219 202.574219 C 49.660156 202.71875 49.765625 202.792969 49.765625 202.792969 L 49.820312 202.730469 C 49.820312 202.730469 49.730469 202.636719 49.554688 202.453125 C 49.378906 202.273438 49.128906 201.996094 48.808594 201.632812 C 48.652344 201.449219 48.472656 201.246094 48.285156 201.015625 C 48.191406 200.902344 48.089844 200.785156 47.992188 200.65625 C 47.894531 200.527344 47.792969 200.394531 47.683594 200.257812 C 47.265625 199.703125 46.804688 199.054688 46.335938 198.296875 C 46.28125 198.203125 46.21875 198.109375 46.160156 198.011719 C 46.101562 197.914062 46.042969 197.8125 45.984375 197.710938 C 45.867188 197.511719 45.753906 197.300781 45.636719 197.085938 C 45.515625 196.875 45.410156 196.652344 45.289062 196.425781 C 45.175781 196.199219 45.070312 195.960938 44.953125 195.722656 C 44.820312 195.429688 44.6875 195.128906 44.5625 194.816406 C 48.691406 195.101562 57.15625 197.1875 57.144531 209.457031 " fill-opacity="1" fill-rule="nonzero"/><path fill="#8dc740" d="M 54.230469 192.507812 C 50.984375 181.914062 41.636719 185.855469 41.636719 185.855469 C 41.636719 185.855469 43.53125 195.734375 54.230469 192.507812 " fill-opacity="1" fill-rule="nonzero"/><path fill="#8dc740" d="M 29.390625 199.425781 C 41.394531 196.542969 37.582031 186.097656 37.582031 186.097656 C 37.582031 186.097656 26.453125 187.550781 29.390625 199.425781 " fill-opacity="1" fill-rule="nonzero"/><g clip-path="url(#53c18934c8)"><path fill="#929497" d="M 89.738281 188.042969 C 89.703125 188.042969 89.664062 188.039062 89.625 188.035156 C 89.046875 187.972656 88.632812 187.460938 88.695312 186.890625 C 88.796875 185.945312 88.851562 184.984375 88.851562 184.027344 C 88.851562 175.039062 84.277344 166.777344 76.617188 161.925781 C 76.128906 161.617188 75.988281 160.972656 76.300781 160.488281 C 76.613281 160.007812 77.261719 159.863281 77.75 160.175781 C 81.71875 162.6875 85.03125 166.164062 87.328125 170.226562 C 89.699219 174.421875 90.953125 179.191406 90.953125 184.027344 C 90.953125 185.058594 90.894531 186.097656 90.785156 187.113281 C 90.726562 187.644531 90.269531 188.042969 89.738281 188.042969 " fill-opacity="1" fill-rule="nonzero"/></g><g clip-path="url(#62a4624a02)"><path fill="#929497" d="M 66.804688 211.972656 C 66.296875 211.972656 65.851562 211.609375 65.769531 211.101562 C 65.675781 210.535156 66.0625 210 66.636719 209.90625 C 77.332031 208.1875 86.027344 199.984375 88.273438 189.492188 C 88.394531 188.929688 88.953125 188.574219 89.519531 188.691406 C 90.085938 188.8125 90.449219 189.363281 90.328125 189.925781 C 89.136719 195.496094 86.292969 200.53125 82.109375 204.488281 C 77.910156 208.457031 72.675781 211.042969 66.972656 211.960938 C 66.917969 211.96875 66.859375 211.972656 66.804688 211.972656 " fill-opacity="1" fill-rule="nonzero"/></g><g clip-path="url(#c69adb11f5)"><path fill="#929497" d="M 35.765625 177.886719 C 35.671875 177.886719 35.582031 177.871094 35.488281 177.847656 C 34.929688 177.699219 34.597656 177.125 34.75 176.570312 C 36.367188 170.695312 39.953125 165.394531 44.84375 161.644531 C 49.894531 157.773438 55.945312 155.726562 62.351562 155.726562 C 66.714844 155.726562 70.902344 156.671875 74.800781 158.542969 C 75.324219 158.792969 75.542969 159.414062 75.289062 159.929688 C 75.035156 160.445312 74.410156 160.664062 73.886719 160.414062 C 70.273438 158.683594 66.394531 157.804688 62.351562 157.804688 C 50.421875 157.804688 39.90625 165.746094 36.777344 177.117188 C 36.652344 177.582031 36.226562 177.886719 35.765625 177.886719 " fill-opacity="1" fill-rule="nonzero"/></g></svg>