<svg xmlns="http://www.w3.org/2000/svg" xmlns:xlink="http://www.w3.org/1999/xlink" width="500" zoomAndPan="magnify" viewBox="0 0 375 374.999991" height="500" preserveAspectRatio="xMidYMid meet" version="1.0"><defs><clipPath id="a1a4494d7e"><path d="M 280.535156 47.25 L 366.707031 47.25 L 366.707031 212.570312 L 280.535156 212.570312 Z M 280.535156 47.25 " clip-rule="nonzero"/></clipPath><clipPath id="405bc2d146"><path d="M 220 215.761719 L 363.390625 215.761719 L 363.390625 353.015625 L 220 353.015625 Z M 220 215.761719 " clip-rule="nonzero"/></clipPath><clipPath id="4108eeabc1"><path d="M 39 22.265625 L 277 22.265625 L 277 153 L 39 153 Z M 39 22.265625 " clip-rule="nonzero"/></clipPath></defs><path fill="#8dc740" d="M 236.8125 166.90625 L 226.914062 166.90625 L 226.914062 135.867188 C 226.914062 132.675781 224.417969 129.941406 221.234375 129.882812 C 217.988281 129.820312 215.335938 132.4375 215.335938 135.671875 L 215.335938 166.90625 L 191.679688 166.90625 L 191.679688 135.867188 C 191.679688 132.675781 189.1875 129.941406 186 129.882812 C 182.753906 129.820312 180.101562 132.4375 180.101562 135.671875 L 180.101562 166.90625 L 170.203125 166.90625 C 165.386719 166.90625 161.480469 170.816406 161.480469 175.640625 L 161.480469 176.984375 C 161.480469 181.804688 165.386719 185.714844 170.203125 185.714844 L 170.203125 206.617188 C 170.203125 214.636719 173.347656 222.335938 178.960938 228.058594 L 192.351562 241.714844 L 192.351562 249.054688 C 192.351562 250.796875 193.761719 252.210938 195.503906 252.210938 L 211.511719 252.210938 C 213.253906 252.210938 214.664062 250.796875 214.664062 249.054688 L 214.664062 241.714844 L 228.054688 228.058594 C 233.667969 222.335938 236.8125 214.636719 236.8125 206.617188 L 236.8125 185.714844 C 241.632812 185.714844 245.535156 181.804688 245.535156 176.984375 L 245.535156 175.640625 C 245.535156 170.816406 241.632812 166.90625 236.8125 166.90625 " fill-opacity="1" fill-rule="nonzero"/><path fill="#8dc740" d="M 209.617188 241.011719 C 209.617188 241.011719 209.652344 244.050781 209.722656 249.746094 C 209.753906 252.59375 209.789062 256.105469 209.832031 260.234375 C 209.855469 262.296875 209.878906 264.515625 209.902344 266.882812 C 209.914062 268.066406 209.925781 269.285156 209.9375 270.542969 C 209.960938 271.101562 209.988281 271.664062 210.015625 272.238281 C 210.03125 272.546875 210.039062 272.914062 210.0625 273.183594 C 210.09375 273.429688 210.125 273.675781 210.160156 273.921875 C 210.1875 274.171875 210.21875 274.421875 210.246094 274.667969 L 210.285156 275.046875 L 210.363281 275.460938 C 210.464844 276.019531 210.566406 276.582031 210.671875 277.152344 C 210.8125 277.714844 210.957031 278.28125 211.105469 278.855469 C 211.238281 279.429688 211.464844 279.988281 211.640625 280.566406 C 212.417969 282.855469 213.496094 285.15625 214.925781 287.367188 C 217.777344 291.78125 222.070312 295.875 227.570312 298.558594 C 230.3125 299.886719 233.328125 300.867188 236.5 301.382812 C 239.675781 301.871094 243 301.851562 246.328125 301.3125 C 249.648438 300.738281 252.957031 299.578125 256.117188 297.871094 L 256.265625 297.792969 C 256.40625 297.714844 256.242188 297.8125 256.328125 297.761719 L 257.390625 297.144531 C 257.863281 296.871094 258.339844 296.59375 258.816406 296.316406 C 259.277344 296.042969 259.800781 295.761719 260.21875 295.488281 C 260.648438 295.21875 261.082031 294.949219 261.511719 294.675781 C 263.238281 293.628906 265.015625 292.398438 266.792969 291.195312 C 270.3125 288.722656 273.769531 286.003906 277.144531 283.0625 C 277.972656 282.316406 278.835938 281.59375 279.65625 280.8125 C 280.472656 280.035156 281.296875 279.257812 282.125 278.476562 C 282.925781 277.664062 283.730469 276.851562 284.539062 276.035156 C 285.351562 275.21875 286.109375 274.351562 286.90625 273.507812 C 290.027344 270.082031 293.007812 266.421875 295.808594 262.546875 C 298.617188 258.675781 301.246094 254.582031 303.625 250.273438 C 308.394531 241.667969 312.246094 232.246094 314.863281 222.253906 C 316.175781 217.261719 317.179688 212.132812 317.847656 206.902344 C 318.507812 201.675781 318.828125 196.351562 318.804688 190.984375 L 318.8125 189.972656 C 318.808594 189.71875 318.816406 190.039062 318.8125 189.90625 L 318.800781 189.640625 L 318.78125 189.105469 L 318.699219 186.964844 L 318.617188 184.820312 C 318.585938 184.105469 318.574219 183.367188 318.496094 182.742188 C 318.234375 180.128906 318.089844 177.546875 317.65625 174.820312 C 316.988281 169.414062 315.792969 164.050781 314.359375 158.730469 C 313.96875 157.40625 313.582031 156.082031 313.191406 154.757812 C 313.011719 154.085938 312.757812 153.445312 312.535156 152.789062 L 311.851562 150.824219 L 311.164062 148.859375 C 310.929688 148.203125 310.652344 147.570312 310.394531 146.921875 C 309.871094 145.632812 309.347656 144.34375 308.824219 143.050781 C 307.628906 140.53125 306.542969 137.949219 305.183594 135.496094 L 304.210938 133.632812 L 303.722656 132.699219 L 303.191406 131.789062 C 302.484375 130.578125 301.769531 129.363281 301.0625 128.148438 C 300.339844 126.9375 299.53125 125.78125 298.773438 124.59375 L 297.621094 122.820312 L 296.382812 121.101562 C 295.542969 119.960938 294.746094 118.792969 293.875 117.675781 L 291.230469 114.351562 L 290.566406 113.519531 L 288.457031 111.117188 L 287.054688 109.515625 C 286.59375 108.976562 286.074219 108.484375 285.589844 107.96875 L 282.621094 104.902344 L 279.507812 101.96875 C 278.496094 100.964844 277.378906 100.074219 276.304688 99.140625 C 275.21875 98.21875 274.160156 97.253906 273.011719 96.40625 L 269.636719 93.773438 L 266.136719 91.296875 C 261.417969 88.078125 256.539062 85.054688 251.398438 82.546875 C 250.757812 82.226562 250.128906 81.882812 249.484375 81.578125 L 247.53125 80.695312 L 245.574219 79.8125 C 244.921875 79.515625 244.277344 79.210938 243.605469 78.960938 L 239.617188 77.386719 C 238.957031 77.105469 238.277344 76.890625 237.601562 76.660156 L 235.570312 75.972656 L 233.542969 75.28125 C 232.863281 75.058594 232.171875 74.882812 231.484375 74.683594 C 230.113281 74.296875 228.742188 73.886719 227.367188 73.515625 C 224.582031 72.890625 221.820312 72.160156 219.003906 71.71875 L 216.902344 71.339844 L 215.847656 71.148438 L 214.789062 71.011719 L 210.554688 70.46875 C 209.851562 70.359375 209.140625 70.324219 208.429688 70.269531 L 204.179688 69.9375 C 203.472656 69.871094 202.757812 69.886719 202.050781 69.855469 C 200.628906 69.816406 199.214844 69.78125 197.792969 69.742188 C 197.785156 69.734375 197.4375 69.734375 197.710938 69.730469 L 197.425781 69.738281 L 196.863281 69.75 L 193.492188 69.832031 L 191.246094 69.882812 L 189.183594 70.039062 C 187.8125 70.140625 186.445312 70.246094 185.078125 70.347656 C 162.59375 72.601562 141.292969 81.300781 124.089844 94.277344 C 123.027344 95.101562 121.96875 95.929688 120.910156 96.753906 C 120.371094 97.15625 119.867188 97.597656 119.359375 98.035156 L 117.835938 99.339844 C 115.769531 101.039062 113.886719 102.925781 111.949219 104.730469 C 111 105.652344 110.109375 106.632812 109.183594 107.574219 L 107.816406 108.996094 C 107.355469 109.464844 106.941406 109.980469 106.503906 110.46875 C 105.640625 111.453125 104.777344 112.441406 103.917969 113.421875 C 103.082031 114.425781 102.292969 115.460938 101.480469 116.472656 C 95.011719 124.613281 89.851562 133.472656 85.796875 142.507812 C 85.253906 143.625 84.824219 144.78125 84.359375 145.921875 C 83.90625 147.066406 83.449219 148.203125 82.996094 149.339844 C 82.597656 150.492188 82.199219 151.644531 81.800781 152.792969 C 81.601562 153.363281 81.40625 153.9375 81.207031 154.507812 C 81.003906 155.078125 80.863281 155.664062 80.6875 156.242188 C 80.347656 157.398438 80.015625 158.550781 79.679688 159.699219 L 79.425781 160.558594 L 79.21875 161.425781 C 79.082031 162.003906 78.945312 162.585938 78.808594 163.160156 C 78.53125 164.316406 78.257812 165.464844 77.988281 166.609375 C 77.773438 167.769531 77.558594 168.921875 77.347656 170.070312 C 76.867188 172.359375 76.609375 174.664062 76.296875 176.9375 C 76.222656 177.507812 76.144531 178.074219 76.066406 178.640625 C 76.019531 179.210938 75.976562 179.78125 75.925781 180.347656 C 75.832031 181.484375 75.738281 182.613281 75.644531 183.738281 C 75.523438 184.859375 75.519531 185.984375 75.480469 187.105469 C 75.441406 188.222656 75.40625 189.332031 75.367188 190.441406 L 75.34375 191.175781 L 75.347656 192.046875 C 75.351562 192.625 75.355469 193.199219 75.355469 193.777344 C 75.363281 194.34375 75.355469 194.941406 75.375 195.480469 C 75.390625 196.015625 75.414062 196.546875 75.433594 197.074219 C 75.480469 199.171875 75.65625 201.34375 75.8125 203.457031 C 75.917969 204.515625 76.019531 205.570312 76.121094 206.617188 C 76.226562 207.664062 76.378906 208.699219 76.5 209.730469 C 77.050781 213.855469 77.785156 217.863281 78.664062 221.734375 C 80.449219 229.472656 82.820312 236.675781 85.582031 243.242188 C 85.90625 244.070312 86.273438 244.875 86.625 245.675781 C 86.988281 246.476562 87.320312 247.28125 87.695312 248.0625 C 88.445312 249.613281 89.160156 251.160156 89.945312 252.632812 C 91.433594 255.625 93.058594 258.417969 94.644531 261.089844 C 95.472656 262.402344 96.25 263.714844 97.074219 264.960938 C 97.90625 266.195312 98.6875 267.4375 99.53125 268.589844 C 100.355469 269.761719 101.148438 270.917969 101.976562 272 C 102.386719 272.550781 102.789062 273.089844 103.1875 273.625 C 103.601562 274.148438 104.007812 274.664062 104.410156 275.175781 C 107.625 279.265625 110.738281 282.75 113.546875 285.703125 C 114.257812 286.433594 114.945312 287.136719 115.605469 287.8125 C 116.257812 288.492188 116.925781 289.105469 117.542969 289.714844 C 118.777344 290.941406 119.949219 291.992188 120.988281 292.957031 C 123.085938 294.863281 124.730469 296.304688 125.871094 297.230469 C 126.996094 298.183594 127.578125 298.675781 127.578125 298.675781 L 127.320312 299.066406 C 127.320312 299.066406 126.648438 298.707031 125.339844 298.011719 C 124.03125 297.316406 122.117188 296.222656 119.660156 294.714844 C 117.21875 293.183594 114.257812 291.207031 110.910156 288.660156 C 107.585938 286.097656 103.875 282.972656 99.984375 279.164062 C 99.496094 278.683594 99.007812 278.195312 98.511719 277.703125 C 98.027344 277.199219 97.539062 276.683594 97.042969 276.167969 C 96.039062 275.136719 95.054688 274.042969 94.054688 272.914062 C 92.054688 270.652344 90.070312 268.1875 88.050781 265.566406 C 86.105469 262.902344 84.097656 260.09375 82.207031 257.050781 C 81.234375 255.546875 80.34375 253.957031 79.402344 252.355469 C 78.933594 251.554688 78.507812 250.722656 78.050781 249.890625 C 77.597656 249.0625 77.140625 248.226562 76.71875 247.363281 C 69.730469 233.671875 64.429688 216.71875 63.363281 197.539062 C 62.285156 178.644531 65.304688 157.523438 73.933594 137.347656 C 74.492188 136.09375 75.046875 134.835938 75.609375 133.574219 L 76.027344 132.625 L 76.492188 131.699219 C 76.804688 131.078125 77.117188 130.460938 77.429688 129.839844 C 77.742188 129.21875 78.054688 128.597656 78.367188 127.976562 C 78.683594 127.351562 78.984375 126.722656 79.339844 126.121094 C 80.027344 124.90625 80.71875 123.679688 81.414062 122.457031 C 82.082031 121.21875 82.851562 120.035156 83.605469 118.835938 C 84.367188 117.644531 85.105469 116.425781 85.894531 115.246094 C 86.714844 114.078125 87.535156 112.910156 88.359375 111.734375 C 88.777344 111.152344 89.171875 110.554688 89.609375 109.984375 L 90.929688 108.28125 C 91.820312 107.144531 92.6875 105.988281 93.605469 104.867188 C 94.542969 103.765625 95.488281 102.660156 96.433594 101.554688 C 96.914062 101.007812 97.367188 100.433594 97.871094 99.90625 L 99.375 98.3125 C 100.382812 97.25 101.367188 96.160156 102.410156 95.125 C 104.535156 93.089844 106.609375 90.980469 108.882812 89.0625 L 110.558594 87.59375 C 111.117188 87.101562 111.675781 86.609375 112.269531 86.152344 C 113.433594 85.222656 114.605469 84.289062 115.777344 83.359375 C 120.554688 79.746094 125.527344 76.273438 130.839844 73.289062 L 132.8125 72.136719 C 133.476562 71.761719 134.164062 71.425781 134.839844 71.066406 C 136.195312 70.359375 137.558594 69.65625 138.917969 68.949219 C 140.3125 68.308594 141.707031 67.664062 143.105469 67.019531 C 143.808594 66.707031 144.5 66.363281 145.214844 66.074219 L 147.367188 65.214844 C 153.070312 62.835938 159.027344 60.992188 165.074219 59.425781 C 166.59375 59.066406 168.117188 58.710938 169.640625 58.351562 C 171.171875 58.007812 172.722656 57.765625 174.261719 57.46875 L 176.582031 57.042969 C 177.355469 56.910156 178.136719 56.828125 178.917969 56.71875 C 180.476562 56.511719 182.039062 56.308594 183.601562 56.101562 C 185.214844 55.972656 186.824219 55.839844 188.4375 55.707031 L 190.855469 55.523438 L 193.101562 55.457031 L 196.476562 55.351562 L 197.320312 55.328125 C 197.78125 55.320312 197.621094 55.328125 197.796875 55.328125 C 199.382812 55.359375 200.96875 55.394531 202.558594 55.425781 C 203.351562 55.453125 204.144531 55.433594 204.9375 55.5 L 207.316406 55.667969 L 209.699219 55.839844 C 210.492188 55.902344 211.289062 55.9375 212.078125 56.046875 C 213.660156 56.242188 215.242188 56.433594 216.824219 56.628906 L 218.011719 56.773438 L 221.554688 57.386719 C 224.714844 57.867188 227.820312 58.652344 230.945312 59.34375 C 232.492188 59.746094 234.035156 60.191406 235.578125 60.617188 C 236.347656 60.839844 237.125 61.035156 237.886719 61.277344 L 240.171875 62.03125 L 242.453125 62.792969 C 243.214844 63.046875 243.980469 63.289062 244.722656 63.59375 L 249.210938 65.332031 C 249.964844 65.609375 250.695312 65.941406 251.425781 66.269531 L 253.625 67.246094 L 255.824219 68.226562 C 256.550781 68.566406 257.261719 68.941406 257.980469 69.296875 C 281.0625 80.605469 300.605469 98.753906 313.816406 120.320312 C 314.621094 121.6875 315.417969 123.046875 316.21875 124.40625 L 316.816406 125.429688 L 317.363281 126.476562 L 318.460938 128.570312 C 319.984375 131.332031 321.222656 134.226562 322.558594 137.0625 C 323.152344 138.515625 323.742188 139.964844 324.332031 141.414062 C 324.621094 142.140625 324.933594 142.855469 325.199219 143.589844 L 326.75 148.007812 C 326.996094 148.746094 327.28125 149.472656 327.484375 150.222656 C 327.925781 151.714844 328.371094 153.203125 328.808594 154.695312 C 330.429688 160.679688 331.773438 166.714844 332.535156 172.792969 C 333.015625 175.78125 333.222656 178.960938 333.484375 182.0625 C 333.566406 182.863281 333.574219 183.558594 333.597656 184.277344 L 333.675781 186.421875 L 333.746094 188.5625 L 333.761719 189.09375 L 333.773438 189.363281 C 333.777344 189.410156 333.785156 189.90625 333.78125 189.828125 L 333.769531 190.960938 C 333.773438 196.976562 333.378906 202.949219 332.613281 208.816406 C 331.839844 214.6875 330.683594 220.445312 329.1875 226.046875 C 326.195312 237.253906 321.824219 247.816406 316.429688 257.4375 C 311.058594 267.082031 304.570312 275.722656 297.519531 283.316406 C 296.625 284.253906 295.757812 285.210938 294.847656 286.113281 C 293.933594 287.019531 293.023438 287.917969 292.121094 288.816406 C 291.1875 289.683594 290.257812 290.542969 289.332031 291.402344 C 288.410156 292.261719 287.441406 293.066406 286.503906 293.890625 C 282.703125 297.140625 278.8125 300.132812 274.855469 302.855469 C 272.847656 304.1875 270.90625 305.503906 268.8125 306.75 C 268.296875 307.066406 267.78125 307.378906 267.273438 307.691406 C 266.753906 308.011719 266.300781 308.25 265.8125 308.53125 C 265.332031 308.804688 264.855469 309.078125 264.378906 309.347656 L 263.664062 309.75 L 263.308594 309.953125 C 263.277344 309.972656 262.992188 310.132812 263.007812 310.117188 L 262.796875 310.226562 C 258.273438 312.625 253.429688 314.273438 248.566406 315.050781 C 243.691406 315.792969 238.835938 315.722656 234.253906 314.941406 C 229.679688 314.132812 225.382812 312.65625 221.507812 310.695312 C 213.738281 306.753906 207.722656 300.855469 203.742188 294.46875 C 201.742188 291.269531 200.242188 287.945312 199.1875 284.660156 C 198.945312 283.832031 198.660156 283.023438 198.476562 282.203125 C 198.285156 281.382812 198.097656 280.574219 197.914062 279.769531 C 197.785156 278.964844 197.65625 278.164062 197.527344 277.375 L 197.433594 276.789062 L 197.375 276.15625 C 197.335938 275.738281 197.296875 275.320312 197.257812 274.90625 C 197.222656 274.492188 197.1875 274.082031 197.15625 273.675781 C 197.128906 273.292969 197.132812 273.007812 197.125 272.671875 C 197.109375 271.949219 197.09375 271.242188 197.078125 270.542969 C 197.089844 269.285156 197.101562 268.066406 197.117188 266.882812 C 197.140625 264.515625 197.160156 262.296875 197.183594 260.234375 C 197.226562 256.105469 197.261719 252.59375 197.292969 249.746094 C 197.363281 244.050781 197.398438 241.011719 197.398438 241.011719 L 209.617188 241.011719 " fill-opacity="1" fill-rule="nonzero"/><path fill="#8dc740" d="M 170.171875 338.238281 C 74.839844 338.324219 84.148438 252.144531 84.148438 252.144531 C 84.148438 252.144531 85.324219 252.015625 87.394531 251.941406 C 87.40625 251.957031 87.410156 251.980469 87.421875 251.996094 C 88.941406 255.238281 90.605469 258.261719 92.222656 261.140625 C 93.917969 263.976562 95.59375 266.664062 97.320312 269.140625 C 98.183594 270.382812 99.035156 271.582031 99.902344 272.726562 C 100.339844 273.296875 100.761719 273.867188 101.183594 274.421875 C 101.617188 274.96875 102.050781 275.511719 102.472656 276.042969 C 105.882812 280.292969 109.203125 283.828125 112.203125 286.765625 C 115.226562 289.691406 117.941406 292 120.179688 293.808594 C 122.445312 295.597656 124.214844 296.910156 125.433594 297.753906 C 126.652344 298.597656 127.277344 299.035156 127.277344 299.035156 L 127.574219 298.679688 C 127.574219 298.679688 127.0625 298.121094 126.050781 297.039062 C 125.027344 295.984375 123.566406 294.363281 121.707031 292.21875 C 120.785156 291.140625 119.746094 289.957031 118.667969 288.59375 C 118.128906 287.914062 117.535156 287.226562 116.964844 286.476562 C 116.390625 285.730469 115.796875 284.949219 115.171875 284.140625 C 112.730469 280.875 110.046875 277.050781 107.339844 272.609375 C 107 272.054688 106.652344 271.496094 106.304688 270.925781 C 105.972656 270.347656 105.636719 269.761719 105.292969 269.167969 C 104.597656 267.996094 103.945312 266.75 103.265625 265.492188 C 102.5625 264.25 101.9375 262.925781 101.253906 261.601562 C 100.582031 260.265625 99.960938 258.871094 99.300781 257.472656 C 98.527344 255.738281 97.75 253.964844 97.015625 252.132812 C 121.019531 253.824219 170.234375 266.085938 170.171875 338.238281 " fill-opacity="1" fill-rule="nonzero"/><path fill="#8dc740" d="M 153.214844 238.554688 C 134.363281 176.269531 80.019531 199.441406 80.019531 199.441406 C 80.019531 199.441406 91.015625 257.53125 153.214844 238.554688 " fill-opacity="1" fill-rule="nonzero"/><path fill="#8dc740" d="M 8.808594 279.246094 C 78.609375 262.292969 56.429688 200.875 56.429688 200.875 C 56.429688 200.875 -8.257812 209.421875 8.808594 279.246094 " fill-opacity="1" fill-rule="nonzero"/><g clip-path="url(#a1a4494d7e)"><path fill="#929497" d="M 359.664062 212.296875 C 359.441406 212.296875 359.21875 212.285156 359 212.261719 C 355.644531 211.898438 353.21875 208.878906 353.582031 205.523438 C 354.183594 199.972656 354.492188 194.308594 354.492188 188.6875 C 354.492188 135.839844 327.90625 87.257812 283.375 58.726562 C 280.535156 56.90625 279.707031 53.125 281.527344 50.28125 C 283.34375 47.4375 287.121094 46.609375 289.964844 48.429688 C 313.027344 63.207031 332.28125 83.652344 345.636719 107.546875 C 359.421875 132.207031 366.707031 160.265625 366.707031 188.6875 C 366.707031 194.746094 366.378906 200.855469 365.730469 206.84375 C 365.386719 209.972656 362.742188 212.296875 359.664062 212.296875 " fill-opacity="1" fill-rule="nonzero"/></g><g clip-path="url(#405bc2d146)"><path fill="#929497" d="M 226.324219 353.027344 C 223.382812 353.027344 220.789062 350.894531 220.304688 347.890625 C 219.761719 344.5625 222.019531 341.421875 225.351562 340.878906 C 287.523438 330.757812 338.074219 282.515625 351.140625 220.835938 C 351.839844 217.53125 355.082031 215.421875 358.382812 216.121094 C 361.679688 216.824219 363.789062 220.066406 363.089844 223.371094 C 356.148438 256.132812 339.621094 285.75 315.292969 309.019531 C 290.890625 332.359375 260.464844 347.550781 227.3125 352.945312 C 226.980469 353 226.648438 353.027344 226.324219 353.027344 " fill-opacity="1" fill-rule="nonzero"/></g><g clip-path="url(#4108eeabc1)"><path fill="#929497" d="M 45.871094 152.570312 C 45.339844 152.570312 44.800781 152.5 44.265625 152.355469 C 41.007812 151.46875 39.089844 148.105469 39.976562 144.851562 C 49.378906 110.296875 70.21875 79.125 98.652344 57.070312 C 128.007812 34.300781 163.199219 22.265625 200.425781 22.265625 C 225.796875 22.265625 250.152344 27.835938 272.824219 38.824219 C 275.859375 40.296875 277.128906 43.953125 275.65625 46.992188 C 274.1875 50.03125 270.53125 51.300781 267.496094 49.832031 C 246.503906 39.652344 223.9375 34.492188 200.425781 34.492188 C 131.09375 34.492188 69.960938 81.195312 51.761719 148.0625 C 51.023438 150.785156 48.558594 152.570312 45.871094 152.570312 " fill-opacity="1" fill-rule="nonzero"/></g></svg>